<svg xmlns="http://www.w3.org/2000/svg" viewBox="0 0 308 173">
  <defs>
    <style>
      .cls-1 {
        fill: #7f7f7f;
      }

      .cls-2 {
        fill: #231815;
      }
    </style>
  </defs>
  <g id="그룹_151" data-name="그룹 151" transform="translate(-34 -247)">
    <g id="그룹_146" data-name="그룹 146" transform="translate(0 -13)">
      <g id="그룹_126" data-name="그룹 126" transform="translate(-10)">
        <path id="빼기_2" data-name="빼기 2" class="cls-1" d="M-2660-1548v-36h36v2h-34v34h-2Z" transform="translate(2704 1844)"/>
        <path id="빼기_3" data-name="빼기 3" class="cls-1" d="M-2660-1548v-36h36v2h-34v34h-2Z" transform="translate(-1232 2920) rotate(90)"/>
        <path id="빼기_4" data-name="빼기 4" class="cls-1" d="M-2660-1548v-36h36v2h-34v34h-2Z" transform="translate(-2307.999 -1151) rotate(180)"/>
        <path id="빼기_5" data-name="빼기 5" class="cls-1" d="M-2660-1548v-36h36v2h-34v34h-2Z" transform="translate(1628 -2227) rotate(-90)"/>
      </g>
    </g>
    <g id="그룹_152" data-name="그룹 152" transform="translate(100 273)">
      <path id="패스_189" data-name="패스 189" class="cls-2" d="M84.8,53.3h36.6a1.5,1.5,0,0,0,0-3H84.8a1.5,1.5,0,0,0,0,3Z"/>
      <path id="패스_190" data-name="패스 190" class="cls-2" d="M125.6,14.3h-75a1.5,1.5,0,1,0,0,3h75a1.5,1.5,0,1,0,0-3Z"/>
      <path id="패스_191" data-name="패스 191" class="cls-2" d="M83.8,78.7a.945.945,0,0,0,1,1H158a1,1,0,0,0,0-2H84.8A1.075,1.075,0,0,0,83.8,78.7Z"/>
      <path id="패스_192" data-name="패스 192" class="cls-2" d="M146.9,98.1h-62a1,1,0,0,0,0,2h62a.945.945,0,0,0,1-1A1,1,0,0,0,146.9,98.1Z"/>
      <path id="패스_193" data-name="패스 193" class="cls-2" d="M19.1,99.1a2,2,0,0,0,4,0c0-11.9,8.5-21.5,18.9-21.5s18.9,9.7,18.9,21.5a2,2,0,1,0,4,0c0-10.9-6.1-20.2-14.7-23.8a15.718,15.718,0,1,0-16.4.1C25.2,79,19.1,88.3,19.1,99.1ZM30.2,61.8A11.8,11.8,0,1,1,42,73.6h0A11.822,11.822,0,0,1,30.2,61.8Z"/>
      <path id="패스_194" data-name="패스 194" class="cls-2" d="M164.3,0H10.9A10.926,10.926,0,0,0,0,10.9v98.4a10.926,10.926,0,0,0,10.9,10.9H164.2a10.926,10.926,0,0,0,10.9-10.9V10.9A10.777,10.777,0,0,0,164.3,0Zm7.9,109.4a7.917,7.917,0,0,1-7.9,7.9H10.9A7.917,7.917,0,0,1,3,109.4v-80H172.2Zm0-83.1H3V10.9A7.982,7.982,0,0,1,10.9,3H164.2a7.917,7.917,0,0,1,7.9,7.9V26.3Z"/>
    </g>
  </g>
</svg>
