<svg xmlns="http://www.w3.org/2000/svg" viewBox="0 0 308 173">
  <defs>
    <style>
      .cls-1 {
        fill: #7f7f7f;
      }

      .cls-2 {
        fill: #e4dcd3;
        stroke: #707070;
        opacity: 0.503;
      }

      .cls-3 {
        font-size: 14px;
        font-family: HyundaiSansHead, Hyundai Sans Head;
      }

      .cls-4 {
        stroke: none;
      }

      .cls-5 {
        fill: none;
      }
    </style>
  </defs>
  <g id="그룹_150" data-name="그룹 150" transform="translate(-34 -247)">
    <g id="그룹_145" data-name="그룹 145" transform="translate(0 -13)">
      <g id="그룹_126" data-name="그룹 126" transform="translate(-10)">
        <path id="빼기_2" data-name="빼기 2" class="cls-1" d="M-2660-1548v-36h36v2h-34v34h-2Z" transform="translate(2704 1844)"/>
        <path id="빼기_3" data-name="빼기 3" class="cls-1" d="M-2660-1548v-36h36v2h-34v34h-2Z" transform="translate(-1232 2920) rotate(90)"/>
        <path id="빼기_4" data-name="빼기 4" class="cls-1" d="M-2660-1548v-36h36v2h-34v34h-2Z" transform="translate(-2307.999 -1151) rotate(180)"/>
        <path id="빼기_5" data-name="빼기 5" class="cls-1" d="M-2660-1548v-36h36v2h-34v34h-2Z" transform="translate(1628 -2227) rotate(-90)"/>
      </g>
    </g>
    <g id="그룹_144" data-name="그룹 144" transform="translate(34.116 277.961)">
      <path id="패스_134" data-name="패스 134" d="M285.265,29.035c-6.757.864-33.121-9.7-43.786-14.485C208.291-.467,181.662-1.8,146.355,4.583,132.312,7.108,118.2,18.935,105.749,26.377c-16.825,10.033-21,10.366-38.884,11.695C45.6,39.6,31.889,41.992,12.481,53.155c-4.438,2.525-9.141,7.176-10.4,11.3-.729,2.525,2.12,7.974,2.186,11.3.927,25.25,1.192,21.13,21.992,24.386a6.851,6.851,0,0,1,4.107,1.528c-7.022,0-13.778.133-20.667-.93-2.65-.4-6.293-3.854-7.22-7.043-1.656-5.449,0-11.562-.729-17.409C1.021,69.9-.967,64.252.292,62.192A40.266,40.266,0,0,1,12.547,50.365C25.53,42.723,41.428,37.873,60.572,36.411A149.811,149.811,0,0,0,87.864,31.76c5.5-1.661,11-4.585,17.885-8.572,13.712-7.907,26.5-17.741,40.805-20.266a174.448,174.448,0,0,1,94.593,8.7C254.595,16.676,275.394,25.58,285.265,29.035Z"/>
      <path id="패스_135" data-name="패스 135" d="M135.4,99.7c4.9,10.565,17.09,23.256,31.067,23.124,24.377-.2,48.688.332,73.065.6a46.616,46.616,0,0,1,9.605,1.462c-30.339,0-60.678.664-90.95-.266C144.343,124.152,136.062,102.026,135.4,99.7Z" transform="translate(-45.748 -33.455)"/>
      <path id="패스_136" data-name="패스 136" d="M57.074,46.724c9.738-1.861,50.543-3.522,79.225-4.784s70.283-5.316,98.965-7.509c5.034-.4,9.8-4.518,14.441-8.439C232.947,4.531,162.2,2.869,129.344,30.312c24.841-28.9,104.2-29.835,125.462-5.249-4.571,6.113-9.34,10.9-16.494,11.429-15.567,1.063-43.985,4.917-59.485,5.515-35.638,1.4-60.943,2.392-96.647,3.655-7.088.266-17.09.465-39.48,4.518C47.734,48.784,51.378,47.854,57.074,46.724Z" transform="translate(-14.454 -2.539)"/>
      <path id="패스_137" data-name="패스 137" d="M416.955,111.873c4.637-1.2,12.52-2.06,19.21-3.721,4.239-1,6.094-3.057,7.75-9.1,1.457-5.183,4.372-13.09-1.457-19-3.18-3.256-3.776-10.5-4.637-16.745,4.173,13.821,5.366,12.359,9.075,17.808,3.378,8.107.795,16.147-1.59,23.057a8.9,8.9,0,0,1-7.088,6.246c-7.618,1.528-13.977,1.794-21.727,3.389A3.38,3.38,0,0,1,416.955,111.873Z" transform="translate(-140.634 -21.241)"/>
      <path id="패스_138" data-name="패스 138" d="M13.1,93.633c6.757,3.655,14.11,1.063,19.144-6.645-5.432.532-11.394,1.595-15.7,1.993-.795-.266-1.192-.4-.265-.93,7.154-1.329,14.308-2.459,21.86-4.452C34.1,95.56,19.062,101.74,13.1,93.633Z" transform="translate(-4.462 -28.052)"/>
      <path id="패스_139" data-name="패스 139" d="M426.432,54.728c9.473-1,16.1-9.834,14.242-10.233-1.524-.266-3.047-.465-4.571-.731a7.232,7.232,0,0,1-3.975-1.528c5.829,0,17.422-.731,17.422,0S436.435,57.054,426.3,54.861C426.3,54.927,426.432,54.728,426.432,54.728Z" transform="translate(-143.95 -14.065)"/>
      <path id="패스_140" data-name="패스 140" d="M436.512,71.962c-4.372,5.116-18.481,3.588-18.018,1.661s16.494-11.1,16.759-10.632c-2.848,2.525-10.4,7.708-10.864,9.037C423.992,73.424,431.345,75.284,436.512,71.962Z" transform="translate(-141.311 -21.132)"/>
      <path id="패스_141" data-name="패스 141" d="M341.6,85.163c11.195-12.891,26.7-13.024,38.487-.465C367.236,76.857,354.451,74.664,341.6,85.163Z" transform="translate(-115.357 -25.296)"/>
      <path id="패스_143" data-name="패스 143" d="M56.8,85.163C67.995,72.272,83.5,72.139,95.287,84.7,82.436,76.857,69.651,74.664,56.8,85.163Z" transform="translate(-19.214 -25.296)"/>
      <path id="빼기_6" data-name="빼기 6" d="M25.775,22.219a26.273,26.273,0,0,1-8.916-1.548,26.39,26.39,0,0,1-7.623-4.281A26.717,26.717,0,0,1,3.44,9.92,26.457,26.457,0,0,1,0,1.807,27.48,27.48,0,0,0,4.022,8.948a27.6,27.6,0,0,0,5.887,5.607,27.211,27.211,0,0,0,15.741,4.976A27.317,27.317,0,0,0,34.5,18.069,27.3,27.3,0,0,0,42.146,14a27.591,27.591,0,0,0,5.966-6.184A27.413,27.413,0,0,0,51.914,0,26.661,26.661,0,0,1,43,15.821a26.416,26.416,0,0,1-7.882,4.693A26.249,26.249,0,0,1,25.775,22.219Z" transform="translate(219.678 88.148)"/>
      <path id="빼기_9" data-name="빼기 9" d="M25.775,22.219a26.273,26.273,0,0,1-8.916-1.548,26.39,26.39,0,0,1-7.623-4.281A26.717,26.717,0,0,1,3.44,9.92,26.457,26.457,0,0,1,0,1.807,27.48,27.48,0,0,0,4.022,8.948a27.6,27.6,0,0,0,5.887,5.607,27.211,27.211,0,0,0,15.741,4.976A27.317,27.317,0,0,0,34.5,18.069,27.3,27.3,0,0,0,42.146,14a27.591,27.591,0,0,0,5.966-6.184A27.413,27.413,0,0,0,51.914,0,26.661,26.661,0,0,1,43,15.821a26.416,26.416,0,0,1-7.882,4.693A26.249,26.249,0,0,1,25.775,22.219Z" transform="translate(30.969 88.148)"/>
      <path id="패스_146" data-name="패스 146" d="M267.2,19l-4.7,25.117,1.789-.532Z" transform="translate(-88.654 -6.377)"/>
      <path id="패스_147" data-name="패스 147" d="M192.469,147.388c28.087-.4,52.861-.2,67.236.465v-.066c0-1.794-30.14-2.791-67.236-2.259s-67.169,2.459-67.169,4.253v.066C139.608,148.784,164.316,147.787,192.469,147.388Z" transform="translate(-42.338 -48.783)"/>
      <path id="빼기_7" data-name="빼기 7" d="M51.873,22.138A27.437,27.437,0,0,0,0,20.323a26.455,26.455,0,0,1,3.467-8.08A26.812,26.812,0,0,1,9.274,5.8,26.47,26.47,0,0,1,16.881,1.54,26.3,26.3,0,0,1,35.049,1.7,26.731,26.731,0,0,1,51.874,22.138Z" transform="translate(219.703 52.38)"/>
      <path id="빼기_8" data-name="빼기 8" d="M51.873,22.138A27.437,27.437,0,0,0,0,20.323a26.455,26.455,0,0,1,3.467-8.08A26.812,26.812,0,0,1,9.274,5.8,26.47,26.47,0,0,1,16.881,1.54,26.3,26.3,0,0,1,35.049,1.7,26.731,26.731,0,0,1,51.874,22.138Z" transform="translate(30.993 52.38)"/>
      <path id="패스_157" data-name="패스 157" d="M347.823,120.652a17.276,17.276,0,1,1,17.223-17.276A17.273,17.273,0,0,1,347.823,120.652Zm0-32.7a15.419,15.419,0,1,0,15.372,15.419A15.4,15.4,0,0,0,347.823,87.957Z" transform="translate(-102.37 -21.52)"/>
      <path id="패스_159" data-name="패스 159" d="M347.823,120.652a17.276,17.276,0,1,1,17.223-17.276A17.273,17.273,0,0,1,347.823,120.652Zm0-32.7a15.419,15.419,0,1,0,15.372,15.419A15.4,15.4,0,0,0,347.823,87.957Z" transform="translate(-291.079 -21.52)"/>
    </g>
    <g id="타원_29" data-name="타원 29" class="cls-2" transform="translate(144 299)">
      <circle class="cls-4" cx="44" cy="44" r="44"/>
      <circle class="cls-5" cx="44" cy="44" r="43.5"/>
    </g>
    <text id="Hyundai_Driving_Experience" data-name="Hyundai 
Driving 
Experience" class="cls-3" transform="translate(154 335)"><tspan x="0" y="0">Hyundai </tspan><tspan x="0" y="14">Driving </tspan><tspan x="0" y="28">Experience</tspan></text>
  </g>
</svg>
