<svg xmlns="http://www.w3.org/2000/svg" xmlns:xlink="http://www.w3.org/1999/xlink" viewBox="0 0 310.2 173">
  <defs>
    <style>
      .cls-1 {
        fill: #7f7f7f;
      }

      .cls-2 {
        clip-path: url(#clip-path);
      }

      .cls-10, .cls-11, .cls-3, .cls-4, .cls-6, .cls-8, .cls-9 {
        fill: none;
      }

      .cls-13, .cls-3, .cls-4 {
        stroke: #707070;
      }

      .cls-3 {
        stroke-width: 4px;
      }

      .cls-11, .cls-3, .cls-4 {
        opacity: 0.751;
      }

      .cls-5 {
        fill: #040000;
      }

      .cls-7 {
        fill: gray;
      }

      .cls-8 {
        stroke: gray;
      }

      .cls-10, .cls-8, .cls-9 {
        stroke-miterlimit: 10;
      }

      .cls-10, .cls-9 {
        stroke: #575757;
      }

      .cls-9 {
        stroke-width: 3px;
      }

      .cls-11 {
        stroke: #231815;
      }

      .cls-12 {
        fill: #cbcbcb;
      }

      .cls-13 {
        fill: #e4dcd3;
        opacity: 0.503;
      }

      .cls-14 {
        font-size: 20px;
        font-family: DS-Digital;
        font-style: italic;
      }

      .cls-15 {
        font-size: 12px;
        font-family: HyundaiSansHeadKRRegular, HyundaiSans Head KR;
      }

      .cls-16 {
        stroke: none;
      }
    </style>
    <clipPath id="clip-path">
      <path id="패스_150" data-name="패스 150" d="M10.041,116.262c8.506,19.575,32.021,28.018,51.408,18.575,25.954-12.7,59.038-20.263,95-20.263s69.045,7.567,95,20.263c19.325,9.444,42.9,1,51.408-18.575A58.628,58.628,0,0,0,307.8,93C307.735,42.464,240,1.5,156.386,1.5S5.1,42.464,5.1,93A57.79,57.79,0,0,0,10.041,116.262Z" transform="translate(-5.1 -1.5)"/>
    </clipPath>
  </defs>
  <g id="그룹_151" data-name="그룹 151" transform="translate(-32.5 -247)">
    <g id="그룹_146" data-name="그룹 146" transform="translate(0 -13)">
      <g id="그룹_126" data-name="그룹 126" transform="translate(-10)">
        <path id="빼기_2" data-name="빼기 2" class="cls-1" d="M-2660-1548v-36h36v2h-34v34h-2Z" transform="translate(2704 1844)"/>
        <path id="빼기_3" data-name="빼기 3" class="cls-1" d="M-2660-1548v-36h36v2h-34v34h-2Z" transform="translate(-1232 2920) rotate(90)"/>
        <path id="빼기_4" data-name="빼기 4" class="cls-1" d="M-2660-1548v-36h36v2h-34v34h-2Z" transform="translate(-2307.999 -1151) rotate(180)"/>
        <path id="빼기_5" data-name="빼기 5" class="cls-1" d="M-2660-1548v-36h36v2h-34v34h-2Z" transform="translate(1628 -2227) rotate(-90)"/>
      </g>
    </g>
    <g id="그룹_142" data-name="그룹 142" transform="translate(32.5 250.903)">
      <g id="그룹_136" data-name="그룹 136" transform="translate(3.751 1.5)">
        <g id="그룹_135" data-name="그룹 135" class="cls-2">
          <g id="그룹_133" data-name="그룹 133" transform="translate(13.696 26.83)">
            <circle id="Oval-7_3_" class="cls-3" cx="28.393" cy="28.393" r="28.393" transform="translate(25.642 25.642)"/>
            <circle id="Oval-7-Copy-2_7_" class="cls-4" cx="27.268" cy="27.268" r="27.268" transform="translate(26.767 26.767)"/>
            <g id="_x2D_눈금_1_" transform="translate(4.565 4.519)">
              <path id="Fill-1_1_" class="cls-5" d="M97.7,42.267V35.7H96.2v6.567h1.5" transform="translate(-47.481 -35.653)"/>
              <path id="Fill-3_14_" class="cls-5" d="M115.438,44.792l1.689-6.317-1.438-.375L114,44.417c.5.125,1,.25,1.438.375" transform="translate(-54.149 -36.552)"/>
              <path id="Fill-5_13_" class="cls-5" d="M61.365,51.391,58.113,45.7l-1.313.75,3.252,5.691a12.264,12.264,0,0,0,1.313-.75" transform="translate(-32.722 -39.399)"/>
              <path id="Fill-7_7_" class="cls-5" d="M78.927,44.417,77.238,38.1l-1.438.375,1.689,6.317c.5-.125.938-.25,1.438-.375" transform="translate(-39.839 -36.552)"/>
              <path id="Fill-9_7_" class="cls-5" d="M163.775,96.327l6.317-1.689-.375-1.438L163.4,94.889c.125.5.25.938.375,1.438" transform="translate(-72.653 -57.192)"/>
              <path id="Fill-11_7_" class="cls-5" d="M156.95,78.765l5.691-3.252-.751-1.313L156.2,77.452l.75,1.313" transform="translate(-69.956 -50.075)"/>
              <path id="Fill-13_7_" class="cls-5" d="M45.791,63.191a4.046,4.046,0,0,1,.563-.5L41.663,58,40.6,59.063l4.628,4.628a2.158,2.158,0,0,0,.563-.5" transform="translate(-26.653 -44.007)"/>
              <path id="Fill-15_1_" class="cls-5" d="M131.913,52.142l3.252-5.691-1.313-.75L130.6,51.391a12.265,12.265,0,0,1,1.313.75" transform="translate(-60.367 -39.399)"/>
              <path id="Fill-17_7_" class="cls-5" d="M145.563,63.228a4.047,4.047,0,0,1,.5.563l4.628-4.628L149.628,58.1,145,62.728a2.158,2.158,0,0,1,.563.5" transform="translate(-65.761 -44.044)"/>
              <path id="Fill-19_7_" class="cls-5" d="M145.563,162.963a4.046,4.046,0,0,1-.563.5l4.628,4.628,1.063-1.063-4.628-4.628a4.049,4.049,0,0,1-.5.563" transform="translate(-65.761 -83.114)"/>
              <path id="Fill-21_7_" class="cls-5" d="M45.828,162.963a4.049,4.049,0,0,1-.5-.563L40.7,167.028l1.063,1.063,4.628-4.628a4.046,4.046,0,0,1-.563-.5" transform="translate(-26.691 -83.114)"/>
              <path id="Fill-23_7_" class="cls-5" d="M33.991,148.1,28.3,151.352l.75,1.313,5.691-3.252c-.25-.5-.5-.876-.75-1.313" transform="translate(-22.046 -77.757)"/>
              <path id="Fill-25_7_" class="cls-5" d="M156.2,149.313l5.691,3.252.751-1.313L156.95,148c-.25.5-.5.876-.75,1.313" transform="translate(-69.956 -77.72)"/>
              <path id="Fill-27_7_" class="cls-5" d="M166,113.6v1.5h6.567v-1.5Z" transform="translate(-73.627 -64.834)"/>
              <path id="Fill-29_7_" class="cls-5" d="M163.4,132.838l6.317,1.689.375-1.438-6.317-1.689c-.125.5-.25.938-.375,1.438" transform="translate(-72.653 -71.502)"/>
              <path id="Fill-31_15_" class="cls-5" d="M27.492,94.889,21.175,93.2,20.8,94.638l6.317,1.689a12.183,12.183,0,0,1,.375-1.438" transform="translate(-19.236 -57.192)"/>
              <path id="Fill-33_7_" class="cls-5" d="M34.742,77.552,29.05,74.3l-.75,1.313,5.691,3.252a12.268,12.268,0,0,1,.75-1.313" transform="translate(-22.046 -50.112)"/>
              <path id="Fill-35_7_" class="cls-5" d="M27.117,131.4,20.8,133.089l.375,1.438,6.317-1.689a12.18,12.18,0,0,1-.375-1.438" transform="translate(-19.236 -71.502)"/>
              <path id="Fill-37_7_" class="cls-5" d="M24.867,113.6H18.3v1.5h6.567v-1.5" transform="translate(-18.3 -64.834)"/>
              <path id="Fill-39_7_" class="cls-5" d="M25.253,80.115l-4.128-.563-.063.625,4.128.563a2.346,2.346,0,0,1,.063-.625Zm-.125,11.508L21,92.185l.063.625,4.128-.563a1.928,1.928,0,0,0-.063-.625Zm8.943-32.459L30.756,56.6l-.375.5L33.7,59.664c.125-.188.25-.313.375-.5ZM24.19,68.044l3.878,1.564a2.221,2.221,0,0,1,.25-.563L24.44,67.419Zm88.182,24.141,4.128.563.063-.625-4.128-.563c0,.25-.063.438-.063.625ZM103.491,113.2l3.315,2.564.375-.5-3.315-2.564c-.125.188-.25.313-.375.5Zm-79.3-8.881.25.563,3.878-1.626c-.063-.188-.188-.375-.25-.563Zm85.118-1,3.878,1.626.25-.563-3.878-1.564a3.715,3.715,0,0,0-.25.5ZM30.381,115.263l.375.5,3.315-2.564c-.125-.188-.25-.313-.375-.5Zm73.11-56.1c.125.188.25.313.375.5l3.315-2.564-.375-.5Zm9.881,8.881-.25-.563-3.878,1.626c.063.188.188.375.25.563ZM39.262,48.156l2.564,3.315c.188-.125.313-.25.5-.375l-2.564-3.315ZM95.3,51.1c.188.125.313.25.5.375l2.564-3.315-.5-.375ZM112.435,80.74l4.128-.563-.063-.625-4.128.563c0,.25.063.438.063.625ZM85.354,45.4a2.222,2.222,0,0,1,.563.25l1.626-3.878-.563-.25Zm-23.14-6.942.563,4.128c.188,0,.375-.063.625-.063L62.84,38.4ZM50.081,41.777l1.626,3.878c.188-.063.375-.188.563-.25l-1.564-3.878Zm24.141.75c.188,0,.375.063.625.063l.563-4.128-.625-.063Z" transform="translate(-19.311 -36.664)"/>
              <path id="Stroke-41_1_" class="cls-6" d="M32.819,120.1a49.486,49.486,0,1,1,69.983,0A49.486,49.486,0,0,1,32.819,120.1Z" transform="translate(-18.309 -35.625)"/>
            </g>
            <g id="눈금숫자_3_" transform="translate(14.197 14.697)">
              <path id="_x30__1_" class="cls-5" d="M4.8,109.627a7.182,7.182,0,0,1,.063-1.188,4.74,4.74,0,0,1,.188-1,1.529,1.529,0,0,1,.563-.688,1.587,1.587,0,0,1,1-.25,3.26,3.26,0,0,1,.876.125,1.1,1.1,0,0,1,.563.5,2.856,2.856,0,0,1,.313.876,8.394,8.394,0,0,1,.063,1.313,7.181,7.181,0,0,1-.063,1.188,4.74,4.74,0,0,1-.188,1,1.529,1.529,0,0,1-.563.688,1.587,1.587,0,0,1-1,.25,3.261,3.261,0,0,1-.876-.125.888.888,0,0,1-.563-.5,2.856,2.856,0,0,1-.313-.876A7.61,7.61,0,0,1,4.8,109.627Zm1.126.25v.876a1.249,1.249,0,0,0,.125.563c.063.125.125.25.188.25a.469.469,0,0,0,.313.063.478.478,0,0,0,.313-.125,1.367,1.367,0,0,0,.188-.313,5.417,5.417,0,0,0,.125-.625v-2.439a1.249,1.249,0,0,0-.125-.563c-.063-.125-.125-.25-.188-.25a.469.469,0,0,0-.313-.063.478.478,0,0,0-.313.125,1.367,1.367,0,0,0-.188.313,5.416,5.416,0,0,0-.125.625v1.564Z" transform="translate(6.52 -42.959)"/>
              <path id="_x32_0_1_" class="cls-5" d="M-8.035,84.816v-.938h-2.189a.541.541,0,0,1,.188-.375,2.889,2.889,0,0,1,.438-.438l.625-.625A2.89,2.89,0,0,0-8.536,82a1.568,1.568,0,0,0,.25-.438,1.159,1.159,0,0,0,.125-.438,1.732,1.732,0,0,0,.063-.563,1.557,1.557,0,0,0-.438-1.188A1.76,1.76,0,0,0-9.786,79a1.825,1.825,0,0,0-1.376.438,1.612,1.612,0,0,0-.438,1.251v.25h1.126V80.5c0-.125.063-.25.063-.375a.864.864,0,0,1,.188-.25c.063-.063.188-.063.375-.063q.563,0,.563.75v.375a2.71,2.71,0,0,1-.063.313c-.063.125-.125.188-.188.313s-.188.188-.313.313l-.5.438-.563.563a1.3,1.3,0,0,0-.375.625,6.489,6.489,0,0,1-.25.625,2.8,2.8,0,0,0-.063.75h3.565Zm.375-2.689A7.181,7.181,0,0,1-7.6,80.939a2.622,2.622,0,0,1,.25-1,1.529,1.529,0,0,1,.563-.688,1.587,1.587,0,0,1,1-.25,3.26,3.26,0,0,1,.876.125,1.1,1.1,0,0,1,.563.5,2.855,2.855,0,0,1,.313.876,8.4,8.4,0,0,1,.063,1.313A7.181,7.181,0,0,1-4.033,83a2.622,2.622,0,0,1-.25,1,1.529,1.529,0,0,1-.563.688,1.587,1.587,0,0,1-1,.25,3.259,3.259,0,0,1-.876-.125.888.888,0,0,1-.563-.5A2.856,2.856,0,0,1-7.6,83.44,8.4,8.4,0,0,1-7.66,82.127Zm1.188.25v.876a1.249,1.249,0,0,0,.125.563c.063.125.125.25.188.25a.469.469,0,0,0,.313.063A.478.478,0,0,0-5.534,84a1.367,1.367,0,0,0,.188-.313,5.417,5.417,0,0,0,.125-.625V80.626a1.249,1.249,0,0,0-.125-.563c-.063-.125-.125-.25-.188-.25a.469.469,0,0,0-.313-.063.478.478,0,0,0-.313.125,1.368,1.368,0,0,0-.188.313,5.417,5.417,0,0,0-.125.625v1.564Z" transform="translate(12.663 -32.657)"/>
              <path id="_x34_0_1_" class="cls-5" d="M-13.3,51.627-11.361,48h1.188v3.69h.563v.938h-.563v1.188h-1.063V52.628H-13.3Zm2.064-2.126h0l-1.126,2.189h1.126Zm1.876,1.626A7.181,7.181,0,0,1-9.3,49.939a2.622,2.622,0,0,1,.25-1,1.529,1.529,0,0,1,.563-.688,1.587,1.587,0,0,1,1-.25,3.26,3.26,0,0,1,.876.125,1.1,1.1,0,0,1,.563.5,2.856,2.856,0,0,1,.313.876,8.4,8.4,0,0,1,.063,1.313A7.182,7.182,0,0,1-5.733,52a2.622,2.622,0,0,1-.25,1,1.529,1.529,0,0,1-.563.688,1.587,1.587,0,0,1-1,.25,3.26,3.26,0,0,1-.876-.125.888.888,0,0,1-.563-.5A2.856,2.856,0,0,1-9.3,52.44,8.4,8.4,0,0,1-9.36,51.127Zm1.126.25v.876a1.249,1.249,0,0,0,.125.563c.063.125.125.25.188.25a.469.469,0,0,0,.313.063A.478.478,0,0,0-7.3,53a1.367,1.367,0,0,0,.188-.313,5.418,5.418,0,0,0,.125-.625V49.626a1.249,1.249,0,0,0-.125-.563c-.063-.125-.125-.25-.188-.25a.469.469,0,0,0-.313-.063.478.478,0,0,0-.313.125,1.367,1.367,0,0,0-.188.313,5.418,5.418,0,0,0-.125.625v1.564Z" transform="translate(13.3 -21.045)"/>
              <path id="_x36_0_1_" class="cls-5" d="M4.813,25v.438c0,.125.063.25.063.375.063.125.188.188.25.25a.469.469,0,0,0,.313.063.469.469,0,0,0,.313-.063.863.863,0,0,0,.188-.25A.793.793,0,0,0,6,25.44V25a2.9,2.9,0,0,0-.125-.876.508.508,0,0,0-.5-.25.508.508,0,0,0-.5.25C4.876,24.315,4.813,24.627,4.813,25ZM6,22.5a.808.808,0,0,0-.125-.5c-.063-.125-.188-.188-.438-.188a.889.889,0,0,0-.375.125.624.624,0,0,0-.25.313c-.063.125-.063.313-.125.5v.876h0a2.72,2.72,0,0,1,.438-.375,1.931,1.931,0,0,1,.688-.125,1.569,1.569,0,0,1,.625.125.841.841,0,0,1,.438.375,2.221,2.221,0,0,1,.25.563,2.577,2.577,0,0,1,.063.75A2.331,2.331,0,0,1,6.752,26.5a1.689,1.689,0,0,1-1.438.5,1.914,1.914,0,0,1-.938-.188,1.227,1.227,0,0,1-.563-.563,3.585,3.585,0,0,1-.25-.876,5.38,5.38,0,0,1-.063-1,7.181,7.181,0,0,1,.063-1.188,2.356,2.356,0,0,1,.25-1,1.707,1.707,0,0,1,.563-.75A1.3,1.3,0,0,1,5.5,21a2.346,2.346,0,0,1,.625.063,1.257,1.257,0,0,1,.5.25A2.72,2.72,0,0,1,7,21.75a2.248,2.248,0,0,1,.125.688H6Zm1.5,1.626a7.182,7.182,0,0,1,.063-1.188,2.622,2.622,0,0,1,.25-1,1.529,1.529,0,0,1,.563-.688,1.587,1.587,0,0,1,1-.25,3.26,3.26,0,0,1,.876.125,1.1,1.1,0,0,1,.563.5,2.856,2.856,0,0,1,.313.876,8.4,8.4,0,0,1,.063,1.313A7.181,7.181,0,0,1,11.13,25a2.622,2.622,0,0,1-.25,1,1.529,1.529,0,0,1-.563.688,1.587,1.587,0,0,1-1,.25,3.26,3.26,0,0,1-.876-.125.888.888,0,0,1-.563-.5,2.856,2.856,0,0,1-.313-.876C7.565,25.065,7.5,24.627,7.5,24.127Zm1.188.25v.876a1.249,1.249,0,0,0,.125.563c.063.125.125.25.188.25a.469.469,0,0,0,.313.063A.478.478,0,0,0,9.629,26a1.367,1.367,0,0,0,.188-.313,5.417,5.417,0,0,0,.125-.625V22.626a1.249,1.249,0,0,0-.125-.563c-.063-.125-.125-.25-.188-.25a.469.469,0,0,0-.313-.063A.478.478,0,0,0,9,21.876a1.367,1.367,0,0,0-.188.313,5.418,5.418,0,0,0-.125.625v1.564Z" transform="translate(7.007 -10.931)"/>
              <path id="_x38_0_1_" class="cls-5" d="M29.788,9.09v.375a.478.478,0,0,0,.125.313c.063.063.125.188.188.188a.813.813,0,0,0,.625,0l.188-.188c.063-.063.063-.188.125-.313s0-.25,0-.375V8.715a.478.478,0,0,0-.125-.313c-.063-.063-.125-.188-.188-.188-.063-.125-.188-.125-.313-.125a.469.469,0,0,0-.313.063l-.188.188c-.063.063-.063.188-.125.313Zm.063-2.627a1.569,1.569,0,0,0,.125.625.6.6,0,0,0,.876,0c.125-.125.125-.313.125-.625,0-.563-.188-.813-.563-.813C30.038,5.713,29.851,5.963,29.851,6.464ZM28.6,9.09a1.507,1.507,0,0,1,.25-.938,1.089,1.089,0,0,1,.75-.5h0a1.018,1.018,0,0,1-.375-.188l-.25-.25a.541.541,0,0,1-.188-.375,2.709,2.709,0,0,0-.063-.313,1.528,1.528,0,0,1,.438-1.251A1.867,1.867,0,0,1,30.414,4.9a1.985,1.985,0,0,1,1.251.375A1.528,1.528,0,0,1,32.1,6.526a.564.564,0,0,1-.063.313.478.478,0,0,1-.125.313.488.488,0,0,1-.25.25l-.375.188h0a1.245,1.245,0,0,1,.75.5,1.507,1.507,0,0,1,.25.938,1.732,1.732,0,0,1-.063.563,2.221,2.221,0,0,1-.25.563,1.362,1.362,0,0,1-.563.438,2.088,2.088,0,0,1-.938.188,1.914,1.914,0,0,1-.938-.188,1.362,1.362,0,0,1-.563-.438,2.222,2.222,0,0,1-.25-.563A.674.674,0,0,1,28.6,9.09Zm3.94-1.063A7.181,7.181,0,0,1,32.6,6.839a2.622,2.622,0,0,1,.25-1,1.529,1.529,0,0,1,.563-.688,1.587,1.587,0,0,1,1-.25,3.26,3.26,0,0,1,.876.125.888.888,0,0,1,.563.5,2.855,2.855,0,0,1,.313.876,8.4,8.4,0,0,1,.063,1.313A7.181,7.181,0,0,1,36.167,8.9a2.622,2.622,0,0,1-.25,1,1.529,1.529,0,0,1-.563.688,1.587,1.587,0,0,1-1,.25,3.26,3.26,0,0,1-.876-.125.888.888,0,0,1-.563-.5A2.856,2.856,0,0,1,32.6,9.34,8.4,8.4,0,0,1,32.54,8.027Zm1.188.25v.876a1.249,1.249,0,0,0,.125.563c.063.125.125.25.188.25a.469.469,0,0,0,.313.063.478.478,0,0,0,.313-.125,1.367,1.367,0,0,0,.188-.313,5.417,5.417,0,0,0,.125-.625V6.589a1.249,1.249,0,0,0-.125-.563c-.063-.125-.125-.25-.188-.25a.469.469,0,0,0-.313-.063.478.478,0,0,0-.313.125c-.063.063-.188.125-.188.25a5.417,5.417,0,0,0-.125.625V8.277Z" transform="translate(-2.395 -4.9)"/>
              <path id="_x31_00_1_" class="cls-5" d="M58.688,10.779h1.188V4.9H59a.9.9,0,0,1-.438.688,2.072,2.072,0,0,1-.938.25H57.5v.75h1.126v4.19ZM60.94,8.027A7.181,7.181,0,0,1,61,6.839a2.622,2.622,0,0,1,.25-1,1.529,1.529,0,0,1,.563-.688,1.587,1.587,0,0,1,1-.25,3.26,3.26,0,0,1,.876.125,1.1,1.1,0,0,1,.563.5,2.855,2.855,0,0,1,.313.876,8.4,8.4,0,0,1,.063,1.313A7.182,7.182,0,0,1,64.567,8.9a2.622,2.622,0,0,1-.25,1,1.529,1.529,0,0,1-.563.688,1.587,1.587,0,0,1-1,.25,3.26,3.26,0,0,1-.876-.125.888.888,0,0,1-.563-.5A2.855,2.855,0,0,1,61,9.34C61,8.965,60.94,8.527,60.94,8.027Zm1.188.25v.876a1.249,1.249,0,0,0,.125.563c.063.125.125.25.188.25a.469.469,0,0,0,.313.063.478.478,0,0,0,.313-.125,1.367,1.367,0,0,0,.188-.313,5.417,5.417,0,0,0,.125-.625V6.589a1.249,1.249,0,0,0-.125-.563c-.063-.125-.125-.25-.188-.25a.469.469,0,0,0-.313-.063.478.478,0,0,0-.313.125,1.368,1.368,0,0,0-.188.313,5.42,5.42,0,0,0-.125.625v1.5Zm2.377-.25a7.181,7.181,0,0,1,.063-1.188,2.622,2.622,0,0,1,.25-1,1.774,1.774,0,0,1,.5-.688,1.587,1.587,0,0,1,1-.25,3.26,3.26,0,0,1,.876.125,1.1,1.1,0,0,1,.563.5,2.856,2.856,0,0,1,.313.876,8.394,8.394,0,0,1,.063,1.313A7.181,7.181,0,0,1,68.069,8.9a2.622,2.622,0,0,1-.25,1,1.529,1.529,0,0,1-.563.688,1.587,1.587,0,0,1-1,.25,3.26,3.26,0,0,1-.876-.125.888.888,0,0,1-.563-.5c-.063-.25-.125-.5-.188-.876A7.807,7.807,0,0,1,64.5,8.027Zm1.188.25v.876a1.249,1.249,0,0,0,.125.563c.063.125.125.25.188.25a.469.469,0,0,0,.313.063.478.478,0,0,0,.313-.125,1.367,1.367,0,0,0,.188-.313,5.424,5.424,0,0,0,.125-.625V6.589a1.249,1.249,0,0,0-.125-.563c-.063-.125-.125-.25-.188-.25a.469.469,0,0,0-.313-.063.478.478,0,0,0-.313.125,1.367,1.367,0,0,0-.188.313,5.419,5.419,0,0,0-.125.625v1.5Z" transform="translate(-13.221 -4.9)"/>
              <path id="_x31_20_1_" class="cls-5" d="M84.288,28.279h1.188V22.463H84.6a.9.9,0,0,1-.438.688,2.072,2.072,0,0,1-.938.25H83.1v.75h1.188Zm5.816,0v-.938H87.916a.54.54,0,0,1,.188-.375,2.889,2.889,0,0,1,.438-.438l.625-.625a2.89,2.89,0,0,0,.438-.438,1.567,1.567,0,0,0,.25-.438,1.16,1.16,0,0,0,.125-.438,1.377,1.377,0,0,0,.063-.5A1.557,1.557,0,0,0,89.6,22.9a1.939,1.939,0,0,0-1.313-.438,1.825,1.825,0,0,0-1.376.438,1.612,1.612,0,0,0-.438,1.251v.25H87.6v-.438c0-.125.063-.25.063-.375a.864.864,0,0,1,.188-.25c.063-.063.188-.063.375-.063q.563,0,.563.75V24.4a2.709,2.709,0,0,1-.063.313c0,.063-.125.188-.188.313s-.188.188-.313.313l-.5.438-.563.563a1.3,1.3,0,0,0-.375.625,2.613,2.613,0,0,0-.25.625,2.8,2.8,0,0,0-.063.75H90.1Zm0-2.752a7.183,7.183,0,0,1,.063-1.188,2.622,2.622,0,0,1,.25-1,1.529,1.529,0,0,1,.563-.688,1.587,1.587,0,0,1,1-.25,3.26,3.26,0,0,1,.876.125,1.1,1.1,0,0,1,.563.5,2.855,2.855,0,0,1,.313.876,8.4,8.4,0,0,1,.063,1.313,7.183,7.183,0,0,1-.063,1.188,2.622,2.622,0,0,1-.25,1,1.529,1.529,0,0,1-.563.688,1.587,1.587,0,0,1-1,.25,3.26,3.26,0,0,1-.876-.125.888.888,0,0,1-.563-.5,2.855,2.855,0,0,1-.313-.876A8.4,8.4,0,0,1,90.1,25.527Zm1.188.25v.876a1.249,1.249,0,0,0,.125.563c.063.125.125.25.188.25a.469.469,0,0,0,.313.063.478.478,0,0,0,.313-.125,1.368,1.368,0,0,0,.188-.313,5.425,5.425,0,0,0,.125-.625V24.026a1.249,1.249,0,0,0-.125-.563c-.063-.125-.125-.25-.188-.25a2.709,2.709,0,0,0-.313-.063.478.478,0,0,0-.313.125,1.367,1.367,0,0,0-.188.313,5.419,5.419,0,0,0-.125.625v1.564Z" transform="translate(-22.811 -11.455)"/>
              <path id="_x31_40_1_" class="cls-5" d="M97.788,53.816h1.188V48H98.1a.9.9,0,0,1-.438.688,2.072,2.072,0,0,1-.938.25H96.6v.75h1.126v4.128Zm2.189-2.189L101.916,48H103.1v3.69h.563v.938H103.1v1.188h-1.063V52.628H99.977Zm2.064-2.126h0l-1.126,2.189h1.126Zm1.564,1.626a7.179,7.179,0,0,1,.063-1.188,2.622,2.622,0,0,1,.25-1,1.529,1.529,0,0,1,.563-.688,1.587,1.587,0,0,1,1-.25,3.26,3.26,0,0,1,.876.125.888.888,0,0,1,.563.5,2.856,2.856,0,0,1,.313.876,8.4,8.4,0,0,1,.063,1.313A7.184,7.184,0,0,1,107.232,52a4.686,4.686,0,0,1-.25,1,1.529,1.529,0,0,1-.563.688,1.587,1.587,0,0,1-1,.25,3.26,3.26,0,0,1-.876-.125.888.888,0,0,1-.563-.5,2.855,2.855,0,0,1-.313-.876A8.392,8.392,0,0,1,103.6,51.127Zm1.188.25v.876a1.249,1.249,0,0,0,.125.563c.063.125.125.25.188.25a.469.469,0,0,0,.313.063.478.478,0,0,0,.313-.125,1.367,1.367,0,0,0,.188-.313,5.419,5.419,0,0,0,.125-.625V49.626a1.494,1.494,0,0,0-.125-.563c-.063-.125-.125-.25-.188-.25a.469.469,0,0,0-.313-.063.478.478,0,0,0-.313.125,1.368,1.368,0,0,0-.188.313,5.423,5.423,0,0,0-.125.625v1.564Z" transform="translate(-27.868 -21.045)"/>
              <path id="_x31_60_1_" class="cls-5" d="M98.388,84.816h1.188V79H98.7a.9.9,0,0,1-.438.688,2.072,2.072,0,0,1-.938.25H97.2v.75h1.126v4.128ZM101.828,83v.438a.889.889,0,0,0,.125.375.863.863,0,0,0,.188.25.813.813,0,0,0,.625,0,.863.863,0,0,0,.188-.25.793.793,0,0,0,.063-.375V83a2.9,2.9,0,0,0-.125-.876c-.063-.188-.25-.25-.5-.25a.508.508,0,0,0-.5.25A3.323,3.323,0,0,0,101.828,83Zm1.188-2.5a.808.808,0,0,0-.125-.5c-.063-.125-.188-.188-.438-.188a.889.889,0,0,0-.375.125.624.624,0,0,0-.25.313c-.063.125-.063.313-.125.5v.876h0a2.719,2.719,0,0,1,.438-.375,1.93,1.93,0,0,1,.688-.125,1.569,1.569,0,0,1,.625.125.841.841,0,0,1,.438.375,2.221,2.221,0,0,1,.25.563,2.8,2.8,0,0,1,.063.75,2.331,2.331,0,0,1-.438,1.564,1.689,1.689,0,0,1-1.438.5,1.914,1.914,0,0,1-.938-.188,1.227,1.227,0,0,1-.563-.563,3.585,3.585,0,0,1-.25-.876,5.38,5.38,0,0,1-.063-1,7.182,7.182,0,0,1,.063-1.188,2.357,2.357,0,0,1,.25-1,1.707,1.707,0,0,1,.563-.75,1.88,1.88,0,0,1,1.126-.25,2.128,2.128,0,0,1,.625.063,1.257,1.257,0,0,1,.5.25,2.721,2.721,0,0,1,.375.438,2.248,2.248,0,0,1,.125.688h-1.126Zm1.188,1.626a7.183,7.183,0,0,1,.063-1.188,2.622,2.622,0,0,1,.25-1,1.529,1.529,0,0,1,.563-.688,1.587,1.587,0,0,1,1-.25,3.26,3.26,0,0,1,.876.125.888.888,0,0,1,.563.5,2.856,2.856,0,0,1,.313.876,8.4,8.4,0,0,1,.063,1.313A7.183,7.183,0,0,1,107.832,83a2.622,2.622,0,0,1-.25,1,1.529,1.529,0,0,1-.563.688,1.587,1.587,0,0,1-1,.25,3.259,3.259,0,0,1-.876-.125.888.888,0,0,1-.563-.5,2.855,2.855,0,0,1-.313-.876A8.4,8.4,0,0,1,104.2,82.127Zm1.126.25v.876a1.249,1.249,0,0,0,.125.563c.063.125.125.25.188.25a.469.469,0,0,0,.313.063.478.478,0,0,0,.313-.125,1.367,1.367,0,0,0,.188-.313,5.423,5.423,0,0,0,.125-.625V80.626a1.494,1.494,0,0,0-.125-.563c-.063-.125-.125-.25-.188-.25a.469.469,0,0,0-.313-.063.478.478,0,0,0-.313.125,1.368,1.368,0,0,0-.188.313,5.425,5.425,0,0,0-.125.625v1.564Z" transform="translate(-28.093 -32.657)"/>
              <path id="_x31_80_1_" class="cls-5" d="M83.988,112.379h1.188v-5.816H84.3a.9.9,0,0,1-.438.688,2.072,2.072,0,0,1-.938.25H82.8v.75h1.126v4.128Zm3.377-1.689v.375a.478.478,0,0,0,.125.313c.063.063.125.188.188.188a.813.813,0,0,0,.625,0c.063-.063.188-.125.188-.188.063-.063.063-.188.125-.313v-.75a.478.478,0,0,0-.125-.313c-.063-.063-.125-.188-.188-.188a.813.813,0,0,0-.625,0c-.063.063-.188.125-.188.188-.063.063-.063.188-.125.313Zm.125-2.564a1.569,1.569,0,0,0,.125.625.6.6,0,0,0,.876,0c.125-.125.125-.313.125-.625,0-.563-.188-.813-.563-.813S87.491,107.563,87.491,108.126Zm-1.313,2.564a1.507,1.507,0,0,1,.25-.938,1.245,1.245,0,0,1,.75-.5h0a1.019,1.019,0,0,1-.375-.188c-.125-.063-.188-.188-.25-.25-.063-.125-.125-.188-.125-.313a2.709,2.709,0,0,0-.063-.313,1.528,1.528,0,0,1,.438-1.251,2.272,2.272,0,0,1,2.5,0,1.528,1.528,0,0,1,.438,1.251.564.564,0,0,1-.063.313.478.478,0,0,1-.125.313.488.488,0,0,1-.25.25l-.375.188h0a1.245,1.245,0,0,1,.75.5,1.507,1.507,0,0,1,.25.938,1.732,1.732,0,0,1-.063.563,2.222,2.222,0,0,1-.25.563,1.362,1.362,0,0,1-.563.438,2.089,2.089,0,0,1-.938.188,1.914,1.914,0,0,1-.938-.188,1.362,1.362,0,0,1-.563-.438,2.22,2.22,0,0,1-.25-.563A1.009,1.009,0,0,1,86.177,110.69Zm3.627-1.063a7.179,7.179,0,0,1,.063-1.188,2.622,2.622,0,0,1,.25-1,1.529,1.529,0,0,1,.563-.688,1.587,1.587,0,0,1,1-.25,3.26,3.26,0,0,1,.876.125,1.1,1.1,0,0,1,.563.5,2.856,2.856,0,0,1,.313.876,8.4,8.4,0,0,1,.063,1.313,7.182,7.182,0,0,1-.063,1.188,2.621,2.621,0,0,1-.25,1,1.529,1.529,0,0,1-.563.688,1.587,1.587,0,0,1-1,.25,3.261,3.261,0,0,1-.876-.125.888.888,0,0,1-.563-.5,2.855,2.855,0,0,1-.313-.876C89.867,110.628,89.8,110.19,89.8,109.627Zm1.188.25v.876a1.249,1.249,0,0,0,.125.563c.063.125.125.25.188.25a.469.469,0,0,0,.313.063.478.478,0,0,0,.313-.125,1.368,1.368,0,0,0,.188-.313,5.421,5.421,0,0,0,.125-.625v-2.439a1.249,1.249,0,0,0-.125-.563c-.063-.125-.125-.25-.188-.25a.469.469,0,0,0-.313-.063.478.478,0,0,0-.313.125,1.367,1.367,0,0,0-.188.313,5.416,5.416,0,0,0-.125.625v1.564Z" transform="translate(-22.698 -42.959)"/>
            </g>
            <g id="Fill-31_14_">
              <path id="path-9_8_" class="cls-7" d="M81.035,44.4A54.035,54.035,0,1,1,27,98.435,54.049,54.049,0,0,1,81.035,44.4m0,2.377a51.659,51.659,0,1,0,51.659,51.659A51.674,51.674,0,0,0,81.035,46.777" transform="translate(-27 -44.4)"/>
            </g>
            <circle id="타원_20" data-name="타원 20" class="cls-7" cx="5.066" cy="5.066" r="5.066" transform="translate(48.969 48.969)"/>
            <path id="패스_148" data-name="패스 148" class="cls-7" d="M95.769,120.852h0a1.321,1.321,0,0,1-1.751.5s-30.9-18.137-30.52-18.762h0c.375-.625,31.833,16.511,31.833,16.511A1.286,1.286,0,0,1,95.769,120.852Z" transform="translate(-40.671 -66.191)"/>
            <circle id="타원_21" data-name="타원 21" class="cls-8" cx="7.567" cy="7.567" r="7.567" transform="translate(46.468 46.468)"/>
          </g>
          <g id="그룹_134" data-name="그룹 134" transform="translate(180.868 26.83)">
            <circle id="Oval-7_2_" class="cls-3" cx="28.393" cy="28.393" r="28.393" transform="translate(25.642 25.642)"/>
            <circle id="Oval-7-Copy-2_6_" class="cls-4" cx="27.268" cy="27.268" r="27.268" transform="translate(26.767 26.767)"/>
            <g id="Fill-31_13_">
              <path id="path-9_7_" class="cls-7" d="M348.335,44.4A54.035,54.035,0,1,1,294.3,98.435,54.049,54.049,0,0,1,348.335,44.4m0,2.377a51.659,51.659,0,1,0,51.659,51.659,51.674,51.674,0,0,0-51.659-51.659" transform="translate(-294.3 -44.4)"/>
            </g>
            <g id="눈금_5_" transform="translate(3.221 3.221)">
              <path id="Stroke-1_5_" class="cls-6" d="M302.366,124.45a50.9,50.9,0,1,1,71.984,0A50.882,50.882,0,0,1,302.366,124.45Z" transform="translate(-287.45 -37.55)"/>
              <path id="Fill-3_13_" class="cls-5" d="M313.655,71.078,307.838,66.2c-.5.563-.938,1.126-1.438,1.689l5.816,4.878c.5-.563.938-1.126,1.438-1.689" transform="translate(-294.549 -48.282)"/>
              <path id="Fill-5_12_" class="cls-5" d="M369.289,46.667V39.1H367.1v7.567a12.785,12.785,0,0,1,2.189,0" transform="translate(-317.286 -38.131)"/>
              <path id="Fill-7_6_" class="cls-5" d="M338.691,52.579,335.5,45.7c-.688.313-1.376.625-2,.938l3.19,6.879c.625-.313,1.313-.625,2-.938" transform="translate(-304.7 -40.603)"/>
              <path id="Fill-9_6_" class="cls-5" d="M397.9,53.618l3.19-6.879c-.688-.313-1.313-.625-2-.938l-3.19,6.879a18.764,18.764,0,0,1,2,.938" transform="translate(-328.075 -40.64)"/>
              <path id="Fill-11_6_" class="cls-5" d="M421.038,72.767l5.816-4.878c-.438-.563-.938-1.126-1.438-1.689L419.6,71.078c.5.563.938,1.126,1.438,1.689" transform="translate(-336.952 -48.282)"/>
              <path id="Fill-13_6_" class="cls-5" d="M434.363,100.665l7.317-1.939c-.188-.688-.375-1.438-.563-2.126L433.8,98.539a13.371,13.371,0,0,1,.563,2.126" transform="translate(-342.272 -59.67)"/>
              <path id="Fill-17_6_" class="cls-5" d="M423.3,158.214l6.192,4.315c.438-.625.876-1.188,1.251-1.814l-6.192-4.315c-.375.625-.813,1.188-1.251,1.814" transform="translate(-338.338 -82.07)"/>
              <path id="Fill-19_6_" class="cls-5" d="M299.08,98.539,291.763,96.6c-.188.688-.375,1.438-.563,2.126l7.317,1.939c.188-.688.375-1.438.563-2.126" transform="translate(-288.855 -59.67)"/>
              <path id="Fill-21_6_" class="cls-5" d="M308.592,156.4l-6.192,4.315c.438.625.813,1.188,1.251,1.814l6.192-4.315c-.438-.625-.876-1.251-1.251-1.814" transform="translate(-293.05 -82.07)"/>
              <path id="Fill-23_6_" class="cls-5" d="M297.342,129l-7.442,1.313c.125.751.25,1.438.375,2.189l7.442-1.313a14.6,14.6,0,0,1-.375-2.189" transform="translate(-288.368 -71.807)"/>
              <path id="Fill-25_6_" class="cls-5" d="M345.552,49.791,343.988,45.1a3.049,3.049,0,0,0-.688.25l1.564,4.691a3.049,3.049,0,0,1,.688-.25" transform="translate(-308.371 -40.378)"/>
              <path id="Fill-27_6_" class="cls-5" d="M391.388,49.941l1.563-4.691c-.25-.063-.438-.188-.688-.25L390.7,49.691a4.755,4.755,0,0,0,.688.25" transform="translate(-326.127 -40.341)"/>
              <path id="Fill-29_6_" class="cls-5" d="M384.051,47.8l1.063-4.816-.75-.188L383.3,47.616a1.665,1.665,0,0,0,.75.188" transform="translate(-323.355 -39.517)"/>
              <path id="Fill-31_12_" class="cls-5" d="M353.214,47.716,352.15,42.9l-.75.188,1.063,4.816.751-.188" transform="translate(-311.405 -39.554)"/>
              <path id="Fill-33_6_" class="cls-5" d="M361.013,46.441,360.45,41.5c-.25,0-.5.063-.75.063l.563,4.941a3.045,3.045,0,0,0,.75-.063" transform="translate(-314.514 -39.03)"/>
              <path id="Fill-35_6_" class="cls-5" d="M376.551,46.5l.563-4.941c-.25,0-.5-.063-.75-.063l-.563,4.941c.25,0,.5.063.75.063" transform="translate(-320.545 -39.03)"/>
              <path id="Fill-37_6_" class="cls-5" d="M430.913,85.4l4.378-2.314a3.357,3.357,0,0,1-.313-.688L430.6,84.714a3.351,3.351,0,0,0,.313.688" transform="translate(-341.073 -54.351)"/>
              <path id="Fill-39_6_" class="cls-5" d="M427.038,78.577l4.128-2.752a3.8,3.8,0,0,0-.438-.625L426.6,77.952a3.8,3.8,0,0,0,.438.625" transform="translate(-339.575 -51.653)"/>
              <path id="Fill-41_5_" class="cls-5" d="M405.225,56.728l2.564-4.253c-.188-.125-.438-.25-.625-.375L404.6,56.353a5.5,5.5,0,0,0,.625.375" transform="translate(-331.334 -43)"/>
              <path id="Fill-43_5_" class="cls-5" d="M434.05,92.7l4.628-1.814c-.063-.25-.188-.438-.25-.688L433.8,92.014a4.747,4.747,0,0,0,.25.688" transform="translate(-342.272 -57.272)"/>
              <path id="Fill-45_5_" class="cls-5" d="M411.463,61.278l3-3.94c-.188-.125-.375-.313-.563-.438l-3,3.94a3.439,3.439,0,0,1,.563.438" transform="translate(-333.694 -44.798)"/>
              <path id="Fill-47_5_" class="cls-5" d="M417.263,66.465,420.7,62.9a4.046,4.046,0,0,0-.563-.5l-3.44,3.565a4.043,4.043,0,0,1,.563.5" transform="translate(-335.866 -46.859)"/>
              <path id="Fill-49_5_" class="cls-5" d="M331.19,56.353,328.625,52.1c-.188.125-.438.25-.625.375l2.564,4.253a5.5,5.5,0,0,1,.625-.375" transform="translate(-302.64 -43)"/>
              <path id="Fill-51_5_" class="cls-5" d="M298.653,137.9l-4.753,1.376c.063.25.125.5.188.688l4.753-1.376a1.631,1.631,0,0,0-.188-.688" transform="translate(-289.866 -75.14)"/>
              <path id="Fill-53_5_" class="cls-5" d="M296.041,122.9l-4.941.313a3.041,3.041,0,0,0,.063.75l4.941-.313a3.045,3.045,0,0,0-.063-.75" transform="translate(-288.817 -69.522)"/>
              <path id="Fill-55_5_" class="cls-5" d="M296.041,115.188,291.1,115v.75l4.941.188v-.75" transform="translate(-288.817 -66.562)"/>
              <path id="Fill-57_5_" class="cls-5" d="M304.578,152l-4.378,2.377c.125.188.25.438.375.625l4.378-2.377a5.508,5.508,0,0,1-.375-.625" transform="translate(-292.226 -80.422)"/>
              <path id="Fill-59_5_" class="cls-5" d="M301.265,145.1l-4.565,1.876a3.354,3.354,0,0,0,.313.688l4.565-1.876a7.352,7.352,0,0,1-.313-.688" transform="translate(-290.915 -77.837)"/>
              <path id="Fill-61_5_" class="cls-5" d="M324.565,60.74l-3-3.94c-.188.125-.375.313-.563.438l3,3.94a3.438,3.438,0,0,0,.563-.438" transform="translate(-300.018 -44.761)"/>
              <path id="Fill-63_5_" class="cls-5" d="M296.8,107.25l-4.878-.75c-.063.25-.063.5-.125.75l4.878.75a3.135,3.135,0,0,0,.125-.75" transform="translate(-289.08 -63.378)"/>
              <path id="Fill-65_5_" class="cls-5" d="M308.265,77.952,304.138,75.2a3.8,3.8,0,0,1-.438.625l4.128,2.752a3.792,3.792,0,0,0,.438-.625" transform="translate(-293.537 -51.653)"/>
              <path id="Fill-67_5_" class="cls-5" d="M318.5,65.965l-3.44-3.565c-.188.188-.375.313-.563.5l3.44,3.565a4.049,4.049,0,0,1,.563-.5" transform="translate(-297.583 -46.859)"/>
              <path id="Fill-69_5_" class="cls-5" d="M300.978,92.014,296.35,90.2c-.063.25-.188.438-.25.688l4.628,1.814a2.242,2.242,0,0,1,.25-.688" transform="translate(-290.69 -57.272)"/>
              <path id="Fill-71_5_" class="cls-5" d="M304.291,84.714,299.913,82.4a2.314,2.314,0,0,0-.313.688l4.378,2.314a3.347,3.347,0,0,1,.313-.688" transform="translate(-292.001 -54.351)"/>
              <path id="Fill-3_12_" class="cls-5" d="M437.825,118.123l4.753.813a47.955,47.955,0,0,0-.75-16.636l-4.628,1.251a43.81,43.81,0,0,1,.625,14.572" transform="translate(-343.545 -61.805)"/>
              <path id="Fill-5_11_" class="cls-5" d="M428.1,148.046l3.94,2.752a47.811,47.811,0,0,0,6.379-15.385l-4.753-.813a43.455,43.455,0,0,1-5.566,13.446" transform="translate(-340.137 -73.904)"/>
            </g>
            <g id="눈금숫자_2_" transform="translate(17.511 16.511)">
              <path id="Fill-4_1_" class="cls-5" d="M315.779,8.988h-4.691v.75h4.753v.938c0,1.438-.75,2.126-2.314,2.126H309.9V11.615h3.878a.765.765,0,0,0,.563-.188.793.793,0,0,0,.25-.563H309.9V7.8h5.879Z" transform="translate(-275.753 -7.8)"/>
              <path id="Fill-6_1_" class="cls-5" d="M286.951,12.9v1.939H290.7V12.9h1.188v5H290.7V15.964h-5V12.9Z" transform="translate(-266.688 -9.71)"/>
              <path id="Fill-8_1_" class="cls-5" d="M272.954,27.6v2.5a2.923,2.923,0,0,1-.188,1.063,2.205,2.205,0,0,1-.5.813,2.569,2.569,0,0,1-.813.5,2.921,2.921,0,0,1-1.063.188H266.7V31.478h3.69a1.419,1.419,0,0,0,.813-.188.911.911,0,0,0,.375-.563h-2.814V29.6h2.877v-.75h-2.877a.791.791,0,0,0-.876.75H266.7c.063-1.313.813-1.939,2.314-1.939h3.94Z" transform="translate(-259.57 -15.217)"/>
              <path id="Fill-10_1_" class="cls-5" d="M261.492,53.9H255.3V50.839h5.066a.791.791,0,0,0-.876-.75H255.3V48.9h3.94c1.5,0,2.314.688,2.314,2.126v.938h-5.066v.75h5.066V53.9Z" transform="translate(-255.3 -23.196)"/>
              <path id="Fill-12_1_" class="cls-5" d="M258.313,78.6V75.914c0-.75-.313-1.126-1-1.126H257V73.6h.313a2.294,2.294,0,0,1,1.689.563,2.356,2.356,0,0,1,.563,1.751V78.6Z" transform="translate(-255.937 -32.448)"/>
              <path id="Fill-14_1_" class="cls-5" d="M268.8,98.3v2.5a2.921,2.921,0,0,1-.188,1.063,2.207,2.207,0,0,1-.5.813,2.571,2.571,0,0,1-.813.5,2.922,2.922,0,0,1-1.063.188H262.3v-2.5a2.92,2.92,0,0,1,.188-1.063,2.207,2.207,0,0,1,.5-.813,2.571,2.571,0,0,1,.813-.5,2.922,2.922,0,0,1,1.063-.188Zm-1.251,1.126h-2.689a1.928,1.928,0,0,0-.625.063.574.574,0,0,0-.375.25.568.568,0,0,0-.188.438,1.928,1.928,0,0,0-.063.625v1.313H266.3a1.929,1.929,0,0,0,.625-.063,1.019,1.019,0,0,0,.375-.188.568.568,0,0,0,.188-.438,1.927,1.927,0,0,0,.063-.625Z" transform="translate(-257.922 -41.701)"/>
              <path id="Fill-16_1_" class="cls-5" d="M338.479,14.188h-3.815a.791.791,0,0,0-.876.75h4.753v.938c0,1.438-.75,2.126-2.314,2.126H332.6V15.126c0-1.376.75-2.126,2.314-2.126h3.565v1.188Zm-2,2.689a.764.764,0,0,0,.563-.188.793.793,0,0,0,.25-.563h-3.565v.75h2.752Z" transform="translate(-284.256 -9.748)"/>
              <path id="Fill-18_1_" class="cls-5" d="M353.076,33.8l3-3.44a3.738,3.738,0,0,1,.438-.375h-2.251a.791.791,0,0,0-.876.75H352.2c.063-1.313.813-1.939,2.314-1.939h4.378l-4.253,5Z" transform="translate(-291.598 -15.666)"/>
              <path id="Fill-20_1_" class="cls-5" d="M363.976,54.541c-.938,0-1.376-.438-1.376-1.251a1.222,1.222,0,0,1,.25-.876.829.829,0,0,1,.625-.375,1.063,1.063,0,0,1-.625-.375,1.563,1.563,0,0,1-.25-.813c0-.876.438-1.251,1.376-1.251h3.815c.938,0,1.376.438,1.376,1.251a1.1,1.1,0,0,1-.876,1.188,1.063,1.063,0,0,1,.625.375,1.619,1.619,0,0,1,.25.876c0,.876-.438,1.251-1.376,1.251Zm.313-1.939c-.25,0-.375.125-.375.438a.332.332,0,0,0,.375.375h3.19a.332.332,0,0,0,.375-.375c0-.313-.125-.438-.375-.438Zm0-1.876a.332.332,0,0,0-.375.375c0,.313.125.438.375.438h3.19c.25,0,.375-.125.375-.438a.332.332,0,0,0-.375-.375Z" transform="translate(-295.494 -23.458)"/>
              <path id="Fill-22_1_" class="cls-5" d="M364.7,78.915h4.065a1.056,1.056,0,0,0,.625-.188.793.793,0,0,0,.25-.563H364.7v-.938c0-1.438.751-2.126,2.314-2.126h3.815v2.877c0,1.438-.751,2.126-2.314,2.126h-3.752V78.915Zm4.941-1.876v-.75H366.7a.827.827,0,0,0-.876.75Z" transform="translate(-296.28 -33.01)"/>
              <path id="Fill-24_1_" class="cls-5" d="M363.119,98.3v2.5a2.921,2.921,0,0,1-.188,1.063,2.207,2.207,0,0,1-.5.813,2.57,2.57,0,0,1-.813.5,2.921,2.921,0,0,1-1.063.188h-3.94v-2.5A2.922,2.922,0,0,1,356.8,99.8a2.208,2.208,0,0,1,.5-.813,2.57,2.57,0,0,1,.813-.5,2.922,2.922,0,0,1,1.063-.188Zm-1.251,1.126h-2.689a1.928,1.928,0,0,0-.625.063.574.574,0,0,0-.375.25.568.568,0,0,0-.188.438,1.929,1.929,0,0,0-.062.625v1.313h2.689a1.928,1.928,0,0,0,.625-.063,1.019,1.019,0,0,0,.375-.188.568.568,0,0,0,.188-.438,1.928,1.928,0,0,0,.063-.625Zm-7.255,3.878v-2.689c0-.75-.313-1.126-1-1.126H353.3V98.3h.313a2.293,2.293,0,0,1,1.689.563,2.356,2.356,0,0,1,.563,1.751V103.3Z" transform="translate(-292.01 -41.701)"/>
            </g>
            <path id="패스_149" data-name="패스 149" class="cls-7" d="M360.449,130.013h0a1.321,1.321,0,0,1-1.313,1.313s-35.836-.563-35.836-1.313h0c0-.688,35.836-1.313,35.836-1.313A1.321,1.321,0,0,1,360.449,130.013Z" transform="translate(-305.163 -75.978)"/>
            <circle id="타원_22" data-name="타원 22" class="cls-7" cx="5.066" cy="5.066" r="5.066" transform="translate(48.969 48.969)"/>
            <circle id="타원_23" data-name="타원 23" class="cls-8" cx="7.567" cy="7.567" r="7.567" transform="translate(46.468 46.468)"/>
          </g>
        </g>
      </g>
      <path id="패스_151" data-name="패스 151" class="cls-9" d="M6.5,119.639a38.247,38.247,0,0,0,52.159,19.075c26.33-13.071,59.914-20.889,96.438-20.889s70.046,7.818,96.438,20.889A38.247,38.247,0,0,0,303.7,119.639a60.668,60.668,0,0,0,5-23.953C308.637,43.652,239.905,1.5,155.037,1.5S1.5,43.652,1.5,95.686A60.668,60.668,0,0,0,6.5,119.639Z" transform="translate(0 0)"/>
      <path id="패스_152" data-name="패스 152" class="cls-10" d="M10.041,116.262c8.506,19.575,32.021,28.018,51.408,18.575,25.954-12.7,59.038-20.263,95-20.263s69.045,7.567,95,20.263c19.325,9.444,42.9,1,51.408-18.575A58.628,58.628,0,0,0,307.8,93C307.735,42.464,240,1.5,156.386,1.5S5.1,42.464,5.1,93A57.79,57.79,0,0,0,10.041,116.262Z" transform="translate(-1.349 0)"/>
      <g id="그룹_139" data-name="그룹 139" transform="translate(113.761 9.38)">
        <g id="그룹_137" data-name="그룹 137">
          <circle id="Oval-7-Copy-2_5_" class="cls-11" cx="9.881" cy="9.881" r="9.881" transform="translate(9.694 9.694)"/>
          <g id="Fill-31_11_">
            <path id="path-9_6_" class="cls-7" d="M200.575,14.1A19.575,19.575,0,1,1,181,33.675,19.564,19.564,0,0,1,200.575,14.1m0,.813a18.7,18.7,0,1,0,18.7,18.7,18.71,18.71,0,0,0-18.7-18.7" transform="translate(-181 -14.1)"/>
          </g>
          <g id="눈금_4_" transform="translate(1.173 1.173)">
            <path id="Stroke-1_4_" class="cls-6" d="M176.269,35.449a18.441,18.441,0,1,1,26.079,0A18.458,18.458,0,0,1,176.269,35.449Z" transform="translate(-170.875 -3.975)"/>
            <path id="Fill-3_11_" class="cls-5" d="M180.427,16.151,178.3,14.4a4.382,4.382,0,0,0-.5.625l2.126,1.751a2.449,2.449,0,0,1,.5-.625" transform="translate(-173.469 -7.88)"/>
            <path id="Fill-5_10_" class="cls-5" d="M200.513,7.252V4.5H199.7V7.252h.813" transform="translate(-181.673 -4.172)"/>
            <path id="Fill-7_5_" class="cls-5" d="M189.439,9.4,188.25,6.9a3.825,3.825,0,0,1-.75.313l1.188,2.5c.25-.125.5-.188.75-.313" transform="translate(-177.103 -5.071)"/>
            <path id="Fill-9_5_" class="cls-5" d="M210.851,9.714l1.188-2.5a3.825,3.825,0,0,0-.75-.313L210.1,9.4c.25.125.5.188.751.313" transform="translate(-185.568 -5.071)"/>
            <path id="Fill-11_5_" class="cls-5" d="M219.3,16.677l2.126-1.751c-.188-.188-.313-.438-.5-.625L218.8,16.051a2.448,2.448,0,0,0,.5.625" transform="translate(-188.827 -7.843)"/>
            <path id="Fill-13_5_" class="cls-5" d="M224.188,26.838l2.627-.688-.188-.75L224,26.088a3.3,3.3,0,0,0,.188.75" transform="translate(-190.775 -12.001)"/>
            <path id="Fill-17_5_" class="cls-5" d="M220.1,47.688l2.251,1.564a2.582,2.582,0,0,0,.438-.688L220.538,47a4.2,4.2,0,0,1-.438.688" transform="translate(-189.314 -20.092)"/>
            <path id="Fill-19_5_" class="cls-5" d="M175.114,26.088l-2.627-.688-.188.75,2.627.688.188-.75" transform="translate(-171.409 -12.001)"/>
            <path id="Fill-21_5_" class="cls-5" d="M178.551,47,176.3,48.564c.125.25.313.438.438.688l2.251-1.564a4.206,4.206,0,0,1-.438-.688" transform="translate(-172.907 -20.092)"/>
            <path id="Fill-23_5_" class="cls-5" d="M174.489,37.1l-2.689.5c.063.25.063.5.125.813l2.689-.5a4.3,4.3,0,0,1-.125-.813" transform="translate(-171.222 -16.383)"/>
            <path id="Fill-25_5_" class="cls-5" d="M191.913,8.389,191.35,6.7c-.063,0-.188.063-.25.063l.563,1.689c.063,0,.188-.063.25-.063" transform="translate(-178.451 -4.996)"/>
            <path id="Fill-27_5_" class="cls-5" d="M208.55,8.451l.563-1.689c-.063,0-.188-.063-.25-.063L208.3,8.389c.063,0,.188.063.25.063" transform="translate(-184.894 -4.996)"/>
            <path id="Fill-29_5_" class="cls-5" d="M205.85,7.714l.375-1.751c-.063,0-.188-.063-.25-.063L205.6,7.651c.125,0,.188,0,.25.063" transform="translate(-183.883 -4.696)"/>
            <path id="Fill-31_10_" class="cls-5" d="M194.725,7.651,194.35,5.9c-.062,0-.188.063-.25.063l.375,1.751c.063-.063.125-.063.25-.063" transform="translate(-179.575 -4.696)"/>
            <path id="Fill-33_5_" class="cls-5" d="M197.538,7.114,197.35,5.3h-.25l.188,1.814c.063.063.188,0,.25,0" transform="translate(-180.699 -4.471)"/>
            <path id="Fill-35_5_" class="cls-5" d="M203.15,7.214l.188-1.814h-.25L202.9,7.214c.063-.063.188,0,.25,0" transform="translate(-182.871 -4.509)"/>
            <path id="Fill-37_5_" class="cls-5" d="M222.825,21.263l1.564-.813c-.063-.063-.063-.188-.125-.25l-1.564.813c.063.125.125.188.125.25" transform="translate(-190.288 -10.053)"/>
            <path id="Fill-39_5_" class="cls-5" d="M221.425,18.751l1.5-1a.325.325,0,0,1-.125-.25l-1.5,1c.063.125.125.188.125.25" transform="translate(-189.764 -9.041)"/>
            <path id="Fill-41_4_" class="cls-5" d="M213.55,10.889l.938-1.564c-.062-.063-.125-.063-.25-.125l-.938,1.564a.474.474,0,0,1,.25.125" transform="translate(-186.767 -5.932)"/>
            <path id="Fill-43_4_" class="cls-5" d="M223.925,23.976l1.689-.625c-.063-.063-.063-.188-.125-.25l-1.689.625a.325.325,0,0,1,.125.25" transform="translate(-190.7 -11.139)"/>
            <path id="Fill-45_4_" class="cls-5" d="M215.788,12.526l1.063-1.438-.188-.188L215.6,12.338l.188.188" transform="translate(-187.629 -6.569)"/>
            <path id="Fill-47_4_" class="cls-5" d="M217.888,14.4l1.251-1.313-.188-.188L217.7,14.213l.188.188" transform="translate(-188.415 -7.318)"/>
            <path id="Fill-49_4_" class="cls-5" d="M186.688,10.764,185.75,9.2c-.063.063-.125.063-.25.125l.938,1.564c.125-.063.188-.125.25-.125" transform="translate(-176.353 -5.932)"/>
            <path id="Fill-51_4_" class="cls-5" d="M174.951,40.3l-1.751.5c0,.063.063.188.063.25l1.751-.5c0-.063-.063-.125-.063-.25" transform="translate(-171.746 -17.582)"/>
            <path id="Fill-53_4_" class="cls-5" d="M174.014,34.9l-1.814.125v.25l1.814-.125V34.9" transform="translate(-171.371 -15.559)"/>
            <path id="Fill-55_4_" class="cls-5" d="M174.014,32.063,172.2,32v.25l1.814.063c-.063-.063,0-.125,0-.25" transform="translate(-171.371 -14.473)"/>
            <path id="Fill-57_4_" class="cls-5" d="M177.064,45.4l-1.563.876c.063.063.063.188.125.25l1.564-.876c0-.063-.063-.125-.125-.25" transform="translate(-172.608 -19.493)"/>
            <path id="Fill-59_4_" class="cls-5" d="M175.889,42.9l-1.689.688c.063.063.063.188.125.25l1.689-.688a.325.325,0,0,1-.125-.25" transform="translate(-172.12 -18.556)"/>
            <path id="Fill-61_4_" class="cls-5" d="M184.351,12.338,183.288,10.9l-.188.188,1.063,1.438.188-.188" transform="translate(-175.454 -6.569)"/>
            <path id="Fill-63_4_" class="cls-5" d="M174.314,29.25,172.563,29a.376.376,0,0,1-.063.25l1.751.25a.376.376,0,0,1,.063-.25" transform="translate(-171.484 -13.349)"/>
            <path id="Fill-65_4_" class="cls-5" d="M178.426,18.6l-1.5-1a.325.325,0,0,0-.125.25l1.5,1c.063-.125.063-.188.125-.25" transform="translate(-173.094 -9.079)"/>
            <path id="Fill-67_4_" class="cls-5" d="M182.138,14.213,180.888,12.9l-.188.188,1.251,1.313.188-.188" transform="translate(-174.555 -7.318)"/>
            <path id="Fill-69_4_" class="cls-5" d="M175.714,23.725l-1.689-.625c-.063.063-.063.188-.125.25l1.689.625c.063-.125.125-.188.125-.25" transform="translate(-172.008 -11.139)"/>
            <path id="Fill-71_4_" class="cls-5" d="M176.989,21.013l-1.564-.813c-.063.063-.063.188-.125.25l1.564.813c.063-.063.063-.125.125-.25" transform="translate(-172.533 -10.053)"/>
            <path id="Fill-3_10_" class="cls-5" d="M225.35,33.191l1.689.313a17.575,17.575,0,0,0-.25-6l-1.689.438a14.807,14.807,0,0,1,.25,5.253" transform="translate(-191.187 -12.787)"/>
            <path id="Fill-5_9_" class="cls-5" d="M221.8,43.978l1.438,1a17.255,17.255,0,0,0,2.314-5.566L223.8,39.1a14.383,14.383,0,0,1-2,4.878" transform="translate(-189.951 -17.133)"/>
          </g>
          <path id="패스_153" data-name="패스 153" class="cls-7" d="M211.9,38.383h0a.447.447,0,0,1-.313-.563s3.752-12.446,4-12.321h0c.25.063-3.127,12.633-3.127,12.633A.47.47,0,0,1,211.9,38.383Z" transform="translate(-192.453 -18.37)"/>
          <circle id="타원_24" data-name="타원 24" class="cls-7" cx="1.814" cy="1.814" r="1.814" transform="translate(17.762 17.762)"/>
          <circle id="타원_25" data-name="타원 25" class="cls-8" cx="2.752" cy="2.752" r="2.752" transform="translate(16.823 16.823)"/>
        </g>
        <g id="그룹_138" data-name="그룹 138" transform="translate(43.466)">
          <circle id="Oval-7-Copy-2_4_" class="cls-11" cx="9.881" cy="9.881" r="9.881" transform="translate(9.694 9.694)"/>
          <g id="Fill-31_9_">
            <path id="path-9_5_" class="cls-7" d="M270.075,14.1A19.575,19.575,0,1,1,250.5,33.675,19.564,19.564,0,0,1,270.075,14.1m0,.813a18.7,18.7,0,1,0,18.7,18.7,18.71,18.71,0,0,0-18.7-18.7" transform="translate(-250.5 -14.1)"/>
          </g>
          <g id="눈금_3_" transform="translate(1.173 1.173)">
            <path id="Stroke-1_3_" class="cls-6" d="M245.769,35.449a18.441,18.441,0,1,1,26.08,0A18.458,18.458,0,0,1,245.769,35.449Z" transform="translate(-240.375 -3.975)"/>
            <path id="Fill-3_9_" class="cls-5" d="M249.827,16.151,247.7,14.4a4.384,4.384,0,0,0-.5.625l2.126,1.751a5.472,5.472,0,0,1,.5-.625" transform="translate(-242.932 -7.88)"/>
            <path id="Fill-5_8_" class="cls-5" d="M270.013,7.252V4.5H269.2V7.252h.813" transform="translate(-251.173 -4.172)"/>
            <path id="Fill-7_4_" class="cls-5" d="M258.839,9.4l-1.188-2.5a3.827,3.827,0,0,1-.751.313l1.188,2.5c.313-.125.5-.188.751-.313" transform="translate(-246.565 -5.071)"/>
            <path id="Fill-9_4_" class="cls-5" d="M280.35,9.714l1.188-2.5a3.824,3.824,0,0,0-.75-.313L279.6,9.4c.25.125.5.188.75.313" transform="translate(-255.068 -5.071)"/>
            <path id="Fill-11_4_" class="cls-5" d="M288.8,16.677l2.126-1.751c-.188-.188-.313-.438-.5-.625L288.3,16.051a2.448,2.448,0,0,0,.5.625" transform="translate(-258.327 -7.843)"/>
            <path id="Fill-13_4_" class="cls-5" d="M293.588,26.838l2.627-.688-.188-.75-2.627.688.188.75" transform="translate(-260.238 -12.001)"/>
            <path id="Fill-17_4_" class="cls-5" d="M289.6,47.688l2.251,1.564a2.583,2.583,0,0,0,.438-.688L290.038,47c-.125.25-.313.438-.438.688" transform="translate(-258.814 -20.092)"/>
            <path id="Fill-19_4_" class="cls-5" d="M244.614,26.088l-2.627-.688-.188.75,2.627.688a1.665,1.665,0,0,1,.188-.75" transform="translate(-240.909 -12.001)"/>
            <path id="Fill-21_4_" class="cls-5" d="M247.951,47,245.7,48.564c.125.25.313.438.438.688l2.251-1.564a4.212,4.212,0,0,0-.438-.688" transform="translate(-242.37 -20.092)"/>
            <path id="Fill-23_4_" class="cls-5" d="M243.889,37.1l-2.689.5c.063.25.063.5.125.813l2.689-.5a3.168,3.168,0,0,0-.125-.813" transform="translate(-240.684 -16.383)"/>
            <path id="Fill-25_4_" class="cls-5" d="M261.413,8.389,260.85,6.7c-.063,0-.188.063-.25.063l.563,1.689c.063,0,.188-.063.25-.063" transform="translate(-247.951 -4.996)"/>
            <path id="Fill-27_4_" class="cls-5" d="M278.05,8.451l.563-1.689c-.063,0-.188-.063-.25-.063L277.8,8.389c.062,0,.125.063.25.063" transform="translate(-254.394 -4.996)"/>
            <path id="Fill-29_4_" class="cls-5" d="M275.35,7.714l.375-1.751c-.062,0-.188-.063-.25-.063L275.1,7.651a.376.376,0,0,1,.25.063" transform="translate(-253.383 -4.696)"/>
            <path id="Fill-31_8_" class="cls-5" d="M264.225,7.651,263.85,5.9c-.062,0-.188.063-.25.063l.375,1.751c.063-.063.125-.063.25-.063" transform="translate(-249.075 -4.696)"/>
            <path id="Fill-33_4_" class="cls-5" d="M267.038,7.151,266.85,5.4h-.25l.188,1.814c.063,0,.125-.063.25-.063" transform="translate(-250.199 -4.509)"/>
            <path id="Fill-35_4_" class="cls-5" d="M272.65,7.214l.188-1.814h-.25L272.4,7.214c.063-.063.188,0,.25,0" transform="translate(-252.371 -4.509)"/>
            <path id="Fill-37_4_" class="cls-5" d="M292.325,21.263l1.564-.813c-.063-.063-.063-.188-.125-.25l-1.564.813c.063.125.063.188.125.25" transform="translate(-259.788 -10.053)"/>
            <path id="Fill-39_4_" class="cls-5" d="M290.925,18.751l1.5-1a.325.325,0,0,1-.125-.25l-1.5,1c.063.125.063.188.125.25" transform="translate(-259.264 -9.041)"/>
            <path id="Fill-41_3_" class="cls-5" d="M283.05,10.889l.938-1.564c-.063-.063-.125-.063-.25-.125l-.938,1.564c.063,0,.125.063.25.125" transform="translate(-256.267 -5.932)"/>
            <path id="Fill-43_3_" class="cls-5" d="M293.425,23.976l1.689-.625c-.062-.063-.062-.188-.125-.25l-1.689.625a.325.325,0,0,1,.125.25" transform="translate(-260.2 -11.139)"/>
            <path id="Fill-45_3_" class="cls-5" d="M285.288,12.526l1.063-1.438-.188-.188L285.1,12.338l.188.188" transform="translate(-257.129 -6.569)"/>
            <path id="Fill-47_3_" class="cls-5" d="M287.388,14.4l1.251-1.313-.188-.188L287.2,14.213l.188.188" transform="translate(-257.915 -7.318)"/>
            <path id="Fill-49_3_" class="cls-5" d="M256.188,10.764,255.25,9.2c-.063.063-.125.063-.25.125l.938,1.564a.474.474,0,0,1,.25-.125" transform="translate(-245.853 -5.932)"/>
            <path id="Fill-51_3_" class="cls-5" d="M244.451,40.3l-1.751.5c0,.063.063.188.063.25l1.751-.5c-.063-.063-.063-.125-.063-.25" transform="translate(-241.246 -17.582)"/>
            <path id="Fill-53_3_" class="cls-5" d="M243.414,34.9l-1.814.125v.25l1.814-.125a.19.19,0,0,0,0-.25" transform="translate(-240.834 -15.559)"/>
            <path id="Fill-55_3_" class="cls-5" d="M243.414,32.063,241.6,32v.25l1.814.063v-.25" transform="translate(-240.834 -14.473)"/>
            <path id="Fill-57_3_" class="cls-5" d="M246.564,45.4,245,46.276c.063.063.063.188.125.25l1.564-.876c0-.063-.063-.125-.125-.25" transform="translate(-242.107 -19.493)"/>
            <path id="Fill-59_3_" class="cls-5" d="M245.289,42.9l-1.689.688c.063.063.063.188.125.25l1.689-.688c0-.063-.063-.125-.125-.25" transform="translate(-241.583 -18.556)"/>
            <path id="Fill-61_3_" class="cls-5" d="M253.851,12.338,252.788,10.9l-.188.188,1.063,1.438.188-.188" transform="translate(-244.954 -6.569)"/>
            <path id="Fill-63_3_" class="cls-5" d="M243.714,29.25,241.963,29a.376.376,0,0,1-.063.25l1.751.25a.376.376,0,0,0,.063-.25" transform="translate(-240.946 -13.349)"/>
            <path id="Fill-65_3_" class="cls-5" d="M247.926,18.6l-1.5-1a.325.325,0,0,0-.125.25l1.5,1a.325.325,0,0,1,.125-.25" transform="translate(-242.594 -9.079)"/>
            <path id="Fill-67_3_" class="cls-5" d="M251.638,14.213,250.388,12.9l-.188.188,1.251,1.313.188-.188" transform="translate(-244.055 -7.318)"/>
            <path id="Fill-69_3_" class="cls-5" d="M245.214,23.725l-1.689-.625c-.063.063-.063.188-.125.25l1.689.625c.063-.125.063-.188.125-.25" transform="translate(-241.508 -11.139)"/>
            <path id="Fill-71_3_" class="cls-5" d="M246.489,21.013l-1.564-.813c-.063.063-.063.188-.125.25l1.564.813c0-.063.062-.125.125-.25" transform="translate(-242.033 -10.053)"/>
            <path id="Fill-3_8_" class="cls-5" d="M294.85,33.191l1.689.313a17.573,17.573,0,0,0-.25-6l-1.689.438a16.417,16.417,0,0,1,.25,5.253" transform="translate(-260.687 -12.787)"/>
            <path id="Fill-5_7_" class="cls-5" d="M291.3,43.978l1.438,1a17.256,17.256,0,0,0,2.314-5.566L293.3,39.1a15.766,15.766,0,0,1-2,4.878" transform="translate(-259.451 -17.133)"/>
          </g>
          <path id="패스_154" data-name="패스 154" class="cls-7" d="M274.633,43.841h0a.487.487,0,0,1-.563.375S261.437,41.34,261.5,41.089h0c.063-.25,12.821,2.251,12.821,2.251A.4.4,0,0,1,274.633,43.841Z" transform="translate(-254.62 -24.203)"/>
          <circle id="타원_26" data-name="타원 26" class="cls-7" cx="1.814" cy="1.814" r="1.814" transform="translate(17.762 17.762)"/>
          <circle id="타원_27" data-name="타원 27" class="cls-8" cx="2.752" cy="2.752" r="2.752" transform="translate(16.823 16.823)"/>
        </g>
      </g>
      <path id="패스_155" data-name="패스 155" class="cls-12" d="M261.827,138.646H218.4c-3.612,0-6.5-2.251-6.5-5.066V91.866c0-2.814,2.89-5.066,6.5-5.066h43.425c3.612,0,6.5,2.251,6.5,5.066V133.58C268.248,136.395,265.359,138.646,261.827,138.646Z" transform="translate(-85.046 -31.953)"/>
    </g>
    <g id="타원_34" data-name="타원 34" class="cls-13" transform="translate(142 288)">
      <circle class="cls-16" cx="46" cy="46" r="46"/>
      <circle class="cls-6" cx="46" cy="46" r="45.5"/>
    </g>
    <g id="그룹_147" data-name="그룹 147">
      <text id="_00_000" data-name="00,000" class="cls-14" transform="translate(187.5 339)"><tspan x="-26.264" y="0">00,000</tspan></text>
      <text id="ODO" class="cls-15" transform="translate(188 319)"><tspan x="-13.524" y="0">ODO</tspan></text>
      <text id="km" class="cls-15" transform="translate(188 353)"><tspan x="-8.76" y="0">km</tspan></text>
    </g>
  </g>
</svg>
