<svg xmlns="http://www.w3.org/2000/svg" xmlns:xlink="http://www.w3.org/1999/xlink" viewBox="0 0 308 173">
  <defs>
    <style>
      .cls-1 {
        fill: #7f7f7f;
      }

      .cls-2 {
        fill: url(#linear-gradient);
      }

      .cls-3 {
        fill: #333;
      }

      .cls-4 {
        fill: #e4dcd3;
        stroke: #707070;
        opacity: 0.503;
      }

      .cls-5 {
        stroke: #000;
        stroke-miterlimit: 10;
        opacity: 0.708;
        fill: url(#linear-gradient-2);
      }

      .cls-6 {
        stroke: none;
      }

      .cls-7 {
        fill: none;
      }
    </style>
    <linearGradient id="linear-gradient" x1="0.499" y1="-0.002" x2="0.499" y2="0.999" gradientUnits="objectBoundingBox">
      <stop offset="0.276"/>
      <stop offset="0.75" stop-color="#707070"/>
      <stop offset="1"/>
    </linearGradient>
    <linearGradient id="linear-gradient-2" x1="0.5" y1="0.002" x2="0.5" y2="1.001" gradientUnits="objectBoundingBox">
      <stop offset="0.276" stop-color="#fff"/>
      <stop offset="1" stop-color="#a3a3a3"/>
    </linearGradient>
  </defs>
  <g id="그룹_149" data-name="그룹 149" transform="translate(-34 -247)">
    <g id="그룹_127" data-name="그룹 127" transform="translate(0 -13)">
      <g id="그룹_126" data-name="그룹 126" transform="translate(-10)">
        <path id="빼기_2" data-name="빼기 2" class="cls-1" d="M-2660-1548v-36h36v2h-34v34h-2Z" transform="translate(2704 1844)"/>
        <path id="빼기_3" data-name="빼기 3" class="cls-1" d="M-2660-1548v-36h36v2h-34v34h-2Z" transform="translate(-1232 2920) rotate(90)"/>
        <path id="빼기_4" data-name="빼기 4" class="cls-1" d="M-2660-1548v-36h36v2h-34v34h-2Z" transform="translate(-2307.999 -1151) rotate(180)"/>
        <path id="빼기_5" data-name="빼기 5" class="cls-1" d="M-2660-1548v-36h36v2h-34v34h-2Z" transform="translate(1628 -2227) rotate(-90)"/>
      </g>
    </g>
    <g id="그룹_148" data-name="그룹 148" transform="translate(71.921 254.459)">
      <path id="패스_162" data-name="패스 162" d="M27.653,115.247a6.07,6.07,0,0,0-.782-.279,1.315,1.315,0,0,0-.447-.112,1.9,1.9,0,0,0-.559-.056,3.764,3.764,0,0,0-1.565.391,10.384,10.384,0,0,0-1.118.559,8.215,8.215,0,0,0-1.341,1.006l-.447.447-.112.112c-.056.056-.056.112-.112.168a1.529,1.529,0,0,0-.224.279,2.253,2.253,0,0,0-.447,1.174c0,.112.056.224.056.391a.794.794,0,0,0,.112.335c.056.112.056.279.112.391a47.692,47.692,0,0,1,.671,5.309,26.672,26.672,0,0,0,.615,3.8,12.871,12.871,0,0,0,1.732,4.247l.391.5a3.615,3.615,0,0,0,.447.5,3.371,3.371,0,0,0,.447.447c.168.112.391.279.559.391a12.4,12.4,0,0,0,2.291,1.118,29.087,29.087,0,0,0,4.694,1.229,95.454,95.454,0,0,0,9.668,1.285c3.185.279,6.259.447,9.109.559.726,0,1.4.056,2.068.056s1.285,0,1.9.056h.447a1.632,1.632,0,0,0,.5-.112c.112-.056.279-.056.391-.112a.794.794,0,0,1,.335-.112c.838-.391,1.453-.726,1.844-.95,2.85-1.788,3.912-3.241,6.035-5.029a13.854,13.854,0,0,0-3.632,1.174,30.311,30.311,0,0,0-3.521,2.012,9.47,9.47,0,0,1-1.565.838c-.056.056-.168.056-.224.112-.056,0-.168.056-.224.056-.112.056-.112,0-.168.056H55.37c-.615,0-1.229,0-1.844-.056-.671,0-1.341-.056-2.068-.056-2.794-.112-5.868-.279-9-.559a89.181,89.181,0,0,1-9.444-1.285,28.457,28.457,0,0,1-4.415-1.174,8.081,8.081,0,0,1-1.844-.894,5.919,5.919,0,0,1-.671-.559l-.335-.335-.279-.391a9.7,9.7,0,0,1-1.4-3.521,28.612,28.612,0,0,1-.559-3.521c-.224-2.235-.447-4.135-.726-5.532a1.632,1.632,0,0,1-.112-.5v-.056a.2.2,0,0,0,.056-.112c0-.056.056-.056.056-.112l.056-.056a3.421,3.421,0,0,1,.335-.279,7.456,7.456,0,0,1,1.062-.782,2.92,2.92,0,0,1,.838-.391,2.684,2.684,0,0,1,.838-.224h.168c.056,0,.168.056.224.056a3.687,3.687,0,0,0,.615.224c.447.168.95.391,1.509.615,4.191,1.676,9.891,4.023,15.926,6.147,1.509.559,3.074,1.062,4.582,1.565s3.073,1.006,4.582,1.453c1.509.5,3.018.894,4.526,1.341.726.224,1.453.391,2.179.559s1.4.335,2.068.5c2.068.5,3.8.838,4.694,1.062a32.152,32.152,0,0,0,4.079.447,29.592,29.592,0,0,0,3.744-.279,151.713,151.713,0,0,1-28.444-7.712c-7.544-2.794-13.02-5.365-17.156-7.041A5.84,5.84,0,0,0,27.653,115.247Z" transform="translate(-9.096 -50.648)"/>
      <path id="패스_163" data-name="패스 163" d="M29.059,126.579c.168,1.509.391,3.018.671,4.471a17.741,17.741,0,0,0,1.229,4.247,3.132,3.132,0,0,0,.559.838c.056.056.112.112.168.112.056.056.112.056.168.112l.5.224a7.468,7.468,0,0,0,1.006.391,5.9,5.9,0,0,0,1.062.335l1.062.335,1.118.279c.726.168,1.453.335,2.235.5,2.962.559,5.979,1.006,9,1.4a82.329,82.329,0,0,0,9.053.726h0a.279.279,0,0,1,0,.559,41.358,41.358,0,0,1-4.582-.168c-1.509-.112-3.018-.224-4.582-.391-3.018-.335-6.035-.726-9.053-1.285-.726-.168-1.509-.279-2.235-.447l-1.118-.279L34.2,138.2c-.391-.112-.726-.224-1.118-.335a9.312,9.312,0,0,1-1.118-.447l-.559-.279c-.056-.056-.224-.112-.279-.168-.112-.056-.168-.168-.279-.223a3.725,3.725,0,0,1-.671-1.062,18.1,18.1,0,0,1-1.229-4.526,41.043,41.043,0,0,1-.447-4.582.264.264,0,0,1,.279-.279c.112,0,.224.112.279.279Z" transform="translate(-12.625 -55.721)"/>
      <path id="패스_164" data-name="패스 164" d="M365.767,126.612a42.374,42.374,0,0,1-.447,4.582,17.073,17.073,0,0,1-1.229,4.526,4.253,4.253,0,0,1-.671,1.062c-.112.056-.168.168-.279.224s-.224.168-.279.168l-.559.279a6.661,6.661,0,0,1-1.118.447,8.486,8.486,0,0,1-1.118.335l-1.118.335-1.118.279c-.727.168-1.509.335-2.235.447-3.018.559-6.035.95-9.053,1.285-1.509.168-3.018.279-4.582.391-1.509.112-3.018.168-4.582.168a.279.279,0,1,1,0-.559h0a83.434,83.434,0,0,0,9.053-.726c3.018-.391,6.035-.782,9-1.4.726-.168,1.509-.279,2.235-.5l1.118-.279,1.062-.335c.391-.112.727-.224,1.062-.335a5.376,5.376,0,0,0,1.006-.391l.5-.224a.429.429,0,0,0,.168-.112c.056-.056.112-.112.168-.112a3.13,3.13,0,0,0,.559-.838,17.739,17.739,0,0,0,1.229-4.247c.279-1.453.5-2.962.671-4.471h0a.246.246,0,0,1,.335-.224C365.656,126.333,365.767,126.5,365.767,126.612Z" transform="translate(-148.774 -55.754)"/>
      <path id="패스_165" data-name="패스 165" d="M65.34,25.5c.447-.838,1.732-3.129,2.179-3.856A76.346,76.346,0,0,1,72.326,14.1c-.559.447-1.062.838-1.509,1.229a11.67,11.67,0,0,0-1.341,1.676c-.112.168-.335.447-.559.838a3.392,3.392,0,0,1-.391.559,9.718,9.718,0,0,0-.615,1.006c-.224.391-.5.782-.726,1.174-.5.782-1.006,1.621-1.453,2.459C61.82,29.8,57.684,37.962,54.052,46.009c-.894,2.012-1.732,4.023-2.515,5.979-.224.5-.671,1.9-.671,1.9a.588.588,0,0,0,.168.671c.279.112,3.241,1.006,4.247,1.174,3.912.726,7.544,1.062,10.673,1.341,3.073.279,5.644.391,7.432.391h2.794s4.023-.056,10.171-.391c3.074-.168,22.185-1.174,23.247-1.174,11.12-.279,24.812-.5,29.394-.615,4.582.112,18.273.391,29.394.615,1.118,0,20.173,1.006,23.247,1.174,6.2.335,10.171.391,10.171.391H204.6c1.788,0,4.359-.112,7.432-.391s6.706-.671,10.673-1.341c1.006-.168,3.968-1.062,4.247-1.174a.591.591,0,0,0,.168-.671s-.447-1.4-.671-1.9c-.726-2.012-1.621-3.968-2.515-5.979-3.632-8.047-7.768-16.206-11.679-22.967-.5-.838-1.006-1.676-1.453-2.459-.224-.391-.5-.782-.726-1.174a9.727,9.727,0,0,1-.615-1.006,4.831,4.831,0,0,0-.391-.559c-.223-.335-.447-.615-.559-.838a15.938,15.938,0,0,0-1.341-1.676A11.1,11.1,0,0,0,205.66,14.1c1.9,2.459,4.582,7.209,4.806,7.544.447.782,1.732,3.073,2.179,3.856,3.576,6.482,6.2,12.965,9.5,20.676a61.5,61.5,0,0,1,2.459,6.985,7.866,7.866,0,0,1-2.85,1.118,89.37,89.37,0,0,1-9.723,1.174c-2.85.279-5.141.335-6.762.391h-2.515a78.089,78.089,0,0,1-9.835,0c-1.006-.056-23.359-1.006-24.42-1.006-10.506-.224-23.3-.279-28.556-.335h-1.676c-5.2.056-18.05.112-28.556.335-1.118,0-23.414.95-24.42,1.006a78.089,78.089,0,0,1-9.835,0H72.94c-1.621,0-3.968-.112-6.762-.391-2.85-.279-6.147-.5-9.723-1.174a8.494,8.494,0,0,1-2.85-1.118,51.929,51.929,0,0,1,2.459-6.985C59.137,38.464,61.708,31.982,65.34,25.5Z" transform="translate(-22.474 -6.221)"/>
      <path id="패스_166" data-name="패스 166" d="M49.2,92.915c2.85,1.118,5.644,2.235,8.494,3.3l8.55,3.185,8.55,3.129c1.453.5,2.85,1.006,4.3,1.509.726.224,1.453.447,2.235.671.782.168,1.565.224,2.291.335,3.074.279,6.091.391,9.165.559s6.091.279,9.165.224a33.566,33.566,0,0,0,4.694-.279,2.009,2.009,0,0,0,.615-.112,1.422,1.422,0,0,0,.391-.112c.056,0,.056,0,.112-.056l.168-.056c.112-.056.168-.112.279-.168a1.882,1.882,0,0,0,.671-.894,1.929,1.929,0,0,0,.168-.726,9.286,9.286,0,0,0-.112-2.515,26.593,26.593,0,0,0-1.118-4.135c-.224-.726-2.012-4.471-2.012-4.471a26.434,26.434,0,0,1,1.174,4.247,23.576,23.576,0,0,1,.391,4.415,8.038,8.038,0,0,1-.279,2.068c-.056.112-.056.279-.112.335h0l-.112.056c-.168.056-.279.056-.5.112-1.4.224-2.906.335-4.415.447a131.341,131.341,0,0,1-18.162.168,15.273,15.273,0,0,1-2.235-.279c-.726-.168-1.453-.335-2.179-.559-1.453-.447-2.906-.894-4.3-1.4-2.906-.95-5.756-1.956-8.606-3.018-5.7-2.068-11.456-4.135-17.044-6.482Zm57.838,10.45Z" transform="translate(-21.757 -40.721)"/>
      <path id="패스_167" data-name="패스 167" d="M17.308,73.147,21.834,75.1s-3.018-2.235-3.688-4.415a8.754,8.754,0,0,1-.279-1.676h-.112c-5.588.447-10.282-.168-10.506-1.4s4.079-2.626,9.668-3.129c.726-.056,1.453-.112,2.179-.112a11.169,11.169,0,0,1,.559-1.174S2.388,63.2.264,67.838C-1.915,72.476,17.308,73.147,17.308,73.147Z" transform="translate(-0.092 -27.883)"/>
      <path id="패스_168" data-name="패스 168" d="M351.17,119.306a46.665,46.665,0,0,0-.727,5.532,27.023,27.023,0,0,1-.559,3.521,10.107,10.107,0,0,1-1.4,3.521l-.279.391-.335.335a5.914,5.914,0,0,1-.671.559,11.343,11.343,0,0,1-1.844.894,31.713,31.713,0,0,1-4.415,1.174c-3.074.615-6.315.95-9.444,1.285-3.129.279-6.2.447-9,.559-.727,0-1.4.056-2.068.056-.615,0-1.229,0-1.844.056h-.224a.205.205,0,0,1-.168-.056c-.056,0-.168-.056-.224-.056-.056-.056-.168-.056-.224-.112-.615-.279-1.174-.615-1.565-.838a30.317,30.317,0,0,0-3.521-2.012,13.857,13.857,0,0,0-3.632-1.174c2.124,1.788,3.241,3.241,6.035,5.029a10.623,10.623,0,0,0,1.844.95.8.8,0,0,0,.335.112c.112.056.279.056.391.112a3.561,3.561,0,0,0,.5.112h.447c.615,0,1.229,0,1.9-.056.671,0,1.4-.056,2.068-.056,2.85-.112,5.923-.279,9.109-.559a95.441,95.441,0,0,0,9.668-1.285,32.138,32.138,0,0,0,4.694-1.229,10.808,10.808,0,0,0,2.291-1.118c.168-.112.391-.279.559-.391l.447-.447a3.615,3.615,0,0,0,.447-.5l.391-.5a12.411,12.411,0,0,0,1.732-4.247,35.585,35.585,0,0,0,.615-3.8c.279-2.291.447-4.135.671-5.309a3.567,3.567,0,0,1,.112-.391c.056-.112.056-.224.112-.335,0-.112.056-.279.056-.391a1.866,1.866,0,0,0-.447-1.174c-.112-.168-.168-.168-.224-.279-.056-.056-.112-.112-.112-.168l-.112-.112-.447-.447a8.217,8.217,0,0,0-1.341-1.006,10.384,10.384,0,0,0-1.118-.559,5.32,5.32,0,0,0-1.565-.391,2.1,2.1,0,0,0-.559.056,1.315,1.315,0,0,1-.447.112c-.335.112-.5.168-.782.279-.5.168-1.006.391-1.509.615-4.191,1.676-9.612,4.247-17.156,7.041a147.5,147.5,0,0,1-28.444,7.712,29.591,29.591,0,0,0,3.744.279,23.214,23.214,0,0,0,4.079-.447c.838-.224,2.571-.559,4.694-1.062.671-.168,1.341-.335,2.068-.5s1.453-.391,2.179-.559c1.453-.447,3.018-.838,4.526-1.341,1.509-.447,3.073-.95,4.582-1.453,1.565-.5,3.073-1.062,4.582-1.565,6.035-2.124,11.735-4.415,15.926-6.147.5-.224,1.006-.391,1.509-.615a2.088,2.088,0,0,1,.615-.224c.056,0,.168-.056.224-.056h.168a2.685,2.685,0,0,1,.838.224c.279.112.559.279.838.391a4.72,4.72,0,0,1,1.062.782,3.424,3.424,0,0,1,.335.279l.056.056a.2.2,0,0,1,.056.112l.056.112v.056A3.807,3.807,0,0,1,351.17,119.306Z" transform="translate(-132.053 -50.515)"/>
      <path id="패스_169" data-name="패스 169" class="cls-2" d="M206.311,190.364a172.355,172.355,0,0,0-22.8,1.565c.782-1.229,1.9-2.459,2.515-3.3a58.348,58.348,0,0,1,7.265-8.047,30,30,0,0,1,8.382-5.309c.559-.279,1.062-.5,1.565-.782-.391.726-.838,1.4-1.285,2.124-.726,1.174-1.565,2.4-2.347,3.576l-2.4,3.521c-.782,1.174-1.621,2.347-2.459,3.521h0a.346.346,0,0,0,.056.447c.112.112.279.112.335,0a25.7,25.7,0,0,0,2.906-3.129,39.706,39.706,0,0,0,2.571-3.465,35.157,35.157,0,0,0,2.291-3.744,24.2,24.2,0,0,0,2.124-4.918h0a4.721,4.721,0,0,0,.279-.95c.671-4.526-1.956-9.109-5.085-13.02a14.615,14.615,0,0,0,1.565,0c1.341-.112,2.682-.279,4.023-.447,2.626-.391,5.253-.894,7.879-1.453,2.571-.559,5.141-1.229,7.656-1.956s5.029-1.509,7.488-2.459a.234.234,0,0,0,.168-.335.249.249,0,0,0-.335-.112h0c-5.141,1.118-10.282,2.179-15.423,3.073-2.571.447-5.141.838-7.768,1.229-1.285.168-2.571.335-3.856.447-.447.056-1.9.056-2.962.112-1.229-1.341-2.4-2.626-3.465-3.744-5.141-5.365-11.456-11.791-19.056-13.02-13.8-2.291-28.22-2.291-42.247-2.291h-2.794c-14.026,0-28.444,0-42.247,2.291-7.6,1.285-13.97,7.656-19.056,13.02-1.062,1.118-2.235,2.347-3.465,3.744-1.062-.056-2.515-.056-2.962-.112-1.285-.112-2.571-.279-3.856-.447-2.571-.335-5.141-.726-7.768-1.229-5.141-.894-10.282-2.012-15.423-3.073h0a.269.269,0,0,0-.335.112.249.249,0,0,0,.168.335c2.459.95,4.973,1.732,7.488,2.459s5.085,1.341,7.656,1.956c2.571.559,5.2,1.062,7.879,1.453,1.341.168,2.626.391,4.023.447a7.318,7.318,0,0,0,1.565,0c-3.129,3.912-5.812,8.438-5.085,13.02a4.72,4.72,0,0,0,.279.95h0a24.2,24.2,0,0,0,2.124,4.918,37.332,37.332,0,0,0,2.291,3.744c.838,1.173,1.676,2.347,2.571,3.465a25.7,25.7,0,0,0,2.906,3.129.21.21,0,0,0,.335,0,.338.338,0,0,0,.056-.447h0c-.838-1.174-1.621-2.347-2.459-3.521l-2.4-3.521c-.782-1.174-1.565-2.347-2.347-3.576-.447-.671-.894-1.4-1.285-2.124a10.214,10.214,0,0,0,1.565.782,29.214,29.214,0,0,1,8.382,5.309,58.348,58.348,0,0,1,7.265,8.047c.615.838,1.732,2.068,2.515,3.3a173.008,173.008,0,0,0-22.8-1.565c-.447,0-.447,2.794,0,2.794,7.991.168,16.15.391,24.085,1.788.391.056.279-1.9.279-2.124-.335-2.906-3.073-5.923-4.806-8.047-3.3-4.191-7.321-8.885-12.238-11.176-1.509-.726-5.532-1.676-5.7-3.688-.112-1.453,1.453-3.688,2.124-4.862a58.5,58.5,0,0,1,8.1-10.115c5.029-5.2,11.065-11.232,18.441-12.462,8.55-1.453,17.379-1.676,26.041-1.956,5.868-.224,11.791-.335,17.659-.335s11.791.168,17.659.335c8.662.279,17.491.5,26.041,1.956,7.376,1.229,13.468,7.265,18.441,12.462a56.459,56.459,0,0,1,8.1,10.115c.671,1.118,2.291,3.409,2.124,4.862-.168,2.012-4.135,2.962-5.7,3.688-4.918,2.291-8.941,6.985-12.238,11.176-1.676,2.179-4.471,5.141-4.806,8.047,0,.168-.112,2.179.279,2.124,7.879-1.341,16.094-1.565,24.085-1.788C206.814,193.1,206.758,190.308,206.311,190.364Z" transform="translate(-15.917 -60.662)"/>
      <path id="패스_170" data-name="패스 170" class="cls-3" d="M161.547,247.8c24.812,0,46.661.447,59.347,1.118v-.056c0-1.341-26.6-2.459-59.347-2.459s-59.347,1.118-59.347,2.459v.056C114.885,248.244,136.735,247.8,161.547,247.8Z" transform="translate(-45.14 -108.707)"/>
      <path id="패스_171" data-name="패스 171" class="cls-3" d="M160.223,128.685c25.538,0,48,1.732,61.023,2.347v-.056c0-1.174-27.326-3.576-61.023-3.576S99.2,129.8,99.2,130.976v.056C112.22,130.418,134.685,128.685,160.223,128.685Z" transform="translate(-43.816 -56.207)"/>
      <path id="패스_172" data-name="패스 172" d="M225.282,65.1c-.671-2.179-.894-4.638-2.123-6.65-1.174-1.9-2.235-2.626-4.024-4.191-1.956-1.621-4.359-3.3-6.315-4.918a13.648,13.648,0,0,1-1.788-1.565c-1.453-2.291-7.991-17.547-10.506-22.3a105.358,105.358,0,0,0-9.165-14.473c-2.515-3.241-5.588-6.929-9.556-8.438-4.023-1.509-8.885-1.453-13.076-1.676C161.577.5,154.48.335,147.327.168,137.436.112,127.545,0,117.6,0h-1.676c-9.891,0-19.782.112-29.729.279-7.153.112-14.306.279-21.4.726-4.191.224-9.053.168-13.076,1.676-3.968,1.509-7.041,5.141-9.556,8.438a105.357,105.357,0,0,0-9.165,14.473c-2.571,4.694-9.053,20.006-10.506,22.3A13.65,13.65,0,0,1,20.7,49.455c-1.956,1.621-4.359,3.241-6.315,4.918-1.788,1.565-2.906,2.235-4.023,4.191-1.229,2.012-1.453,4.471-2.124,6.65a37.35,37.35,0,0,1-3.912,4.471C2.426,71.752.749,74.267.693,77.061c-.112,6.482.894,12.518,1.732,18.832C3.711,105.673,5.5,115.62,5.5,125.511V139.2c0,3.018-.726,7.041.279,10,1.341,4.023,5.979,3.856,9.444,3.856H29.752c3.129,0,7.768.782,9.891-2.068,1.341-1.844,1.006-4.3,1.006-6.482a12.154,12.154,0,0,1,0-2.85,7.07,7.07,0,0,1,1.565-.168l5.7-.671c1.4-.168-1.174-.95-1.565-.95a80.889,80.889,0,0,1-21.794-2.347c-4.415-1.118-7.991-4.806-4.526-5.085-.279-.279-2.626-1.118-3.129-.168-.615,1.174,1.062,3.074,2.906,4.247,3.576,2.235,9.723,3.912,18.106,4.415l-.056.056c0,3.8,1.229,10.45-4.079,11.065-3.241.391-17.994.224-21.906,0-3.968-.224-3.688-4.359-3.688-7.376,0-7.041.279-14.194-.056-21.235-.5-10.618-2.291-21.291-3.688-31.8-.391-2.962-.671-5.979-.782-9-.112-2.738-.279-5.868.726-8.438A34.706,34.706,0,0,1,8.628,67.17a9.005,9.005,0,0,0,1.509-4.023c.335-1.676.391-2.515,1.676-3.912A34.145,34.145,0,0,1,17.9,54.261c2.012-1.4,5.756-3.521,7.544-5.141a.558.558,0,0,0,.224-.279c.5-1.062,6.091-15.088,8.271-19.279C38.3,21.123,43.331,11.009,51.21,5.309,54.34,3.018,58.084,2.85,61.884,2.515c6.315-.559,12.685-.726,19-.894,11.176-.279,22.409-.447,33.585-.447h4.471c11.176,0,22.409.168,33.585.447,6.315.168,12.685.335,19,.894,3.744.335,7.488.5,10.673,2.794,7.879,5.7,12.909,15.87,17.267,24.253,2.179,4.191,7.768,18.217,8.271,19.279a.558.558,0,0,0,.224.279c1.788,1.676,5.532,3.8,7.544,5.141a34.145,34.145,0,0,1,6.091,4.973,6.6,6.6,0,0,1,1.676,3.912,9.006,9.006,0,0,0,1.509,4.023,32.349,32.349,0,0,1,4.247,7.041c1.006,2.571.838,5.7.726,8.438-.112,3.018-.391,6.035-.782,9-1.341,10.562-3.185,21.179-3.688,31.8-.335,7.041-.056,14.194-.056,21.235,0,2.962.279,7.1-3.688,7.376-3.912.224-18.665.391-21.906,0-5.309-.671-4.079-7.265-4.079-11.065,0-.056,0-.056-.056-.056,8.438-.447,14.529-2.179,18.106-4.415,1.844-1.174,3.521-3.018,2.906-4.247-.5-.95-2.794-.112-3.129.168,3.465.224-.112,3.968-4.526,5.085a80.889,80.889,0,0,1-21.794,2.347c-.335,0-2.906.782-1.565.95l5.7.671a7.449,7.449,0,0,1,1.565.168,12.154,12.154,0,0,1,0,2.85c0,2.124-.391,4.638,1.006,6.482,2.124,2.85,6.762,2.068,9.891,2.068h14.529c3.465,0,8.1.168,9.444-3.856,1.006-2.906.279-6.985.279-10V125.511c0-9.835,1.788-19.838,3.074-29.617.838-6.315,1.844-12.35,1.732-18.832-.056-2.794-1.732-5.309-3.632-7.376C227.965,68.232,226.288,66.667,225.282,65.1Z" transform="translate(-0.353)"/>
      <path id="패스_173" data-name="패스 173" d="M303.045,98.894c-2.85,1.062-5.7,2.068-8.606,3.018-1.453.5-2.906.95-4.3,1.4a15.606,15.606,0,0,1-2.179.559c-.726.112-1.453.224-2.235.279a123.153,123.153,0,0,1-18.162-.168c-1.509-.112-3.018-.224-4.415-.447a1.632,1.632,0,0,1-.5-.112l-.112-.056h0c-.056-.056-.056-.224-.112-.335a18.592,18.592,0,0,1-.279-2.068,23.571,23.571,0,0,1,.391-4.415A26.433,26.433,0,0,1,263.7,92.3s-1.788,3.744-2.012,4.471a26.593,26.593,0,0,0-1.118,4.135,9.177,9.177,0,0,0-.112,2.515c.056.224.112.5.168.726a1.882,1.882,0,0,0,.671.894c.112.056.168.112.279.168l.168.056c.056,0,.056,0,.112.056.112.056.279.056.391.112a2.884,2.884,0,0,0,.615.112,44.959,44.959,0,0,0,4.694.279c3.074,0,6.091-.112,9.165-.224,3.074-.168,6.091-.279,9.165-.559a16.182,16.182,0,0,0,2.291-.335,14.77,14.77,0,0,0,2.235-.671c1.453-.447,2.906-.95,4.3-1.509l8.494-3.129,8.55-3.185c2.85-1.062,5.7-2.179,8.494-3.3l-.224-.5C314.445,94.7,308.745,96.826,303.045,98.894Zm-40.57,4.471Z" transform="translate(-114.943 -40.721)"/>
      <path id="패스_174" data-name="패스 174" d="M399.47,67.838C397.347,63.2,380.079,63.2,380.079,63.2a11.168,11.168,0,0,1,.559,1.174c.726,0,1.4.056,2.179.112,5.588.447,9.891,1.844,9.668,3.129-.224,1.229-4.974,1.9-10.506,1.4h-.112a5.853,5.853,0,0,1-.279,1.676c-.671,2.235-3.688,4.415-3.688,4.415l4.526-1.956C382.371,73.147,401.594,72.476,399.47,67.838Z" transform="translate(-166.774 -27.883)"/>
    </g>
    <g id="타원_35" data-name="타원 35" class="cls-4" transform="translate(144 317)">
      <circle class="cls-6" cx="44" cy="44" r="44"/>
      <circle class="cls-7" cx="44" cy="44" r="43.5"/>
    </g>
    <path id="패스_175" data-name="패스 175" class="cls-5" d="M207.491,185.006H149.929a2.7,2.7,0,0,1-2.729-2.629V169.329a2.7,2.7,0,0,1,2.729-2.629h57.562a2.7,2.7,0,0,1,2.729,2.629v13.047A2.666,2.666,0,0,1,207.491,185.006Z" transform="translate(9.616 185.305)"/>
  </g>
</svg>
