<svg id="Hyundai-logo" xmlns="http://www.w3.org/2000/svg" viewBox="0 0 115.899 32.344">
  <defs>
    <style>
      .cls-1 {
        fill: none;
      }

      .cls-2 {
        fill: #002c5f;
      }
    </style>
  </defs>
  <rect id="사각형_88" data-name="사각형 88" class="cls-1" width="115.899" height="32.344"/>
  <g id="그룹_104" data-name="그룹 104" transform="translate(4.043 9.097)">
    <path id="패스_94" data-name="패스 94" class="cls-2" d="M64.043,16.6v4.043H59.393V16.6H56.9V27.247h2.493V23h4.649v4.245H66.6V16.6H64.043Z" transform="translate(-22.602 -14.511)"/>
    <path id="패스_95" data-name="패스 95" class="cls-2" d="M80.921,16.6,78.36,20.845l-2.7-4.245H72.7l4.38,7.008v3.639h2.493V23.608L84.02,16.6h-3.1Z" transform="translate(-27.755 -14.511)"/>
    <path id="패스_96" data-name="패스 96" class="cls-2" d="M98.075,16.6v7.816a.461.461,0,0,1-.472.472H93.561V16.6H91V27.247h7.48a1.933,1.933,0,0,0,1.55-.606,2.03,2.03,0,0,0,.606-1.55V16.6H98.075Z" transform="translate(-33.724 -14.511)"/>
    <path id="패스_97" data-name="패스 97" class="cls-2" d="M116.18,16.6H108.7V27.247h2.561V18.958H115.3a.506.506,0,0,1,.472.472v7.816h2.561v-8.49A2.076,2.076,0,0,0,116.18,16.6" transform="translate(-39.497 -14.511)"/>
    <path id="패스_98" data-name="패스 98" class="cls-2" d="M134.08,16.6H126.6V27.247h7.48a1.933,1.933,0,0,0,1.55-.606,2.03,2.03,0,0,0,.606-1.55V18.756a1.933,1.933,0,0,0-.606-1.55,2.03,2.03,0,0,0-1.55-.606m-.4,2.83v4.919c0,.27-.2.606-.472.606h-4.043v-6H133.2c.27-.067.472.2.472.472" transform="translate(-45.336 -14.511)"/>
    <path id="패스_99" data-name="패스 99" class="cls-2" d="M146.356,16.6a1.933,1.933,0,0,0-1.55.606,2.311,2.311,0,0,0-.606,1.55v8.49h2.561V24.012h4.649v3.234h2.561V16.6Zm5.054,2.291v2.763h-4.649V19.5a.461.461,0,0,1,.472-.472h4.178Z" transform="translate(-51.076 -14.511)"/>
    <rect id="사각형_89" data-name="사각형 89" class="cls-2" width="2.561" height="10.647" transform="translate(105.253 2.089)"/>
    <path id="패스_100" data-name="패스 100" class="cls-2" d="M20.42,28.324c8.019,0,14.42-3.369,14.42-7.412S28.3,13.5,20.42,13.5,6,16.869,6,20.912s6.536,7.412,14.42,7.412m2.763-3.639a4.361,4.361,0,0,1-1.55,2.291,4.475,4.475,0,0,1-1.011.2h-.067a25.858,25.858,0,0,1-7.21-1.011h-.067c-.2-.067-.27-.2-.27-.27a.679.679,0,0,1,.067-.2l.067-.067a16.253,16.253,0,0,1,4.649-2.493,21.971,21.971,0,0,1,3.369-1.078c.741-.27,3.5-.741,2.021,2.628m7.345-7.412c.067-.067.067-.2.2-.2s.2,0,.27.067c1.685,1.078,2.7,2.358,2.7,3.773,0,2.561-3.234,4.717-8.019,5.728a.911.911,0,0,1-.606,0s-.067-.067,0-.2c0-.067.067-.067.067-.2a36.535,36.535,0,0,0,5.054-8.827,2.833,2.833,0,0,0,.337-.135m-12.735-.135a4.361,4.361,0,0,1,1.55-2.291,4.475,4.475,0,0,1,1.011-.2h.067a25.858,25.858,0,0,1,7.21,1.011H27.7c.2.067.27.2.27.27a.679.679,0,0,1-.067.2l-.067.067a16.253,16.253,0,0,1-4.649,2.493,21.971,21.971,0,0,1-3.369,1.078c-.741.27-3.437.674-2.021-2.628m-2.628-1.954a.911.911,0,0,1,.606,0s.067.067,0,.2c0,.067-.067.067-.067.2a36.535,36.535,0,0,0-5.054,8.827.679.679,0,0,1-.067.2c-.067.067-.067.2-.2.2s-.2,0-.27-.067c-1.685-1.078-2.7-2.358-2.7-3.773-.2-2.628,3.032-4.784,7.749-5.795" transform="translate(-6 -13.5)"/>
  </g>
</svg>
